<svg xmlns="http://www.w3.org/2000/svg" width="256.356" height="203.564" viewBox="0 0 256.356 203.564">
  <g id="Groupe_115" data-name="Groupe 115" transform="translate(-13.555 -39.95)">
    <circle id="Ellipse_26" data-name="Ellipse 26" cx="18.454" cy="18.454" r="18.454" transform="translate(136.974 47.132)" fill="#ffa94b"/>
    <path id="Rectangle_477" data-name="Rectangle 477" d="M31.858,0H92.924A31.98,31.98,0,0,1,124.9,31.98v0a13.026,13.026,0,0,1-13.026,13.026H13.148A13.148,13.148,0,0,1,0,31.858v0A31.858,31.858,0,0,1,31.858,0Z" transform="translate(130.241 78.668)" fill="#d1d0d0"/>
    <path id="Rectangle_478" data-name="Rectangle 478" d="M17.608,0H70.492A17.608,17.608,0,0,1,88.1,17.608v0a8.807,8.807,0,0,1-8.807,8.807H8.807A8.807,8.807,0,0,1,0,17.608v0A17.608,17.608,0,0,1,17.608,0Z" transform="translate(181.811 57.625)" fill="#d1d0d0"/>
    <path id="Rectangle_479" data-name="Rectangle 479" d="M13.887,0H68.722A13.887,13.887,0,0,1,82.609,13.887v0a5.829,5.829,0,0,1-5.829,5.829H5.829A5.829,5.829,0,0,1,0,13.887v0A13.887,13.887,0,0,1,13.887,0Z" transform="translate(45.467 47.53)" fill="#d1d0d0"/>
    <path id="Rectangle_480" data-name="Rectangle 480" d="M13.887,0H68.722A13.887,13.887,0,0,1,82.609,13.887v0a5.829,5.829,0,0,1-5.829,5.829H5.829A5.829,5.829,0,0,1,0,13.887v0A13.887,13.887,0,0,1,13.887,0Z" transform="translate(134.729 152.534)" fill="#d1d0d0"/>
    <path id="Tracé_753" data-name="Tracé 753" d="M232.1,217.311c1.71-6.376-5.205-16.086-11.487-19.679-8.889-5.083-10.951-7.5-31.91-9.945-15.535-1.813-18.981-5.177-30.459-3.546-6.387.907-7.449,2.251-15.437,3.049-8.558.856-10.929-.327-21.8-.227-9.081.084-14,.13-20.565,1.589-11.428,2.54-16.939,6.933-23.344,4.165-2.672-1.154-2.828-.092-4.1.7-1.322.826-1.661.36-2.678,3-2,5.187-10.461,11.618-10.769,13.319-.527,2.92,27.56,7.554,75.028,11.438C167.443,223.864,227.736,233.575,232.1,217.311Z" fill="#144627"/>
    <path id="Tracé_754" data-name="Tracé 754" d="M234.535,222.574c1.989-5.508-6.38-7.79-12.628-12.687-8.733-6.845-8.175-12.432-32.554-14.546-18.069-1.566-22.078-4.472-35.429-3.063-7.429.783-8.664,1.944-17.956,2.634-9.954.739-12.712-.283-25.354-.2-10.563.072-16.28.112-23.921,1.373-13.292,2.194-19.7,5.989-27.153,3.6-3.107-1-3.488-.4-4.968.287-1.537.713-1.732.631-2.915,2.911-2.326,4.481-12.177,13.05-12.535,14.519-.614,2.523,32.066,3.514,87.279,6.868C164.626,226.6,229.462,236.625,234.535,222.574Z" fill="#f99254"/>
    <path id="Tracé_755" data-name="Tracé 755" d="M185.584,225.242a7.393,7.393,0,0,1-7.109-7.647V120.226a7.128,7.128,0,1,1,14.218,0V217.6A7.393,7.393,0,0,1,185.584,225.242Z" fill="#67393b"/>
    <path id="Tracé_756" data-name="Tracé 756" d="M183.466,163.059c-22.682-1.414-41.2-15.761-45.543-31.981-4.418-16.511,7.36-29.331,19.284-42.308,5.631-6.129,20.766-22.6,33.234-19.989,6.06,1.271,6.047,5.909,17.232,18.989,12.9,15.081,17.469,14.243,22.156,22.986,1.2,2.244,9.668,18.748-.821,33.98C219.7,158.254,200.062,164.093,183.466,163.059Z" fill="#144627"/>
    <path id="Tracé_757" data-name="Tracé 757" d="M88.708,208.934a5.459,5.459,0,0,1-5.459-5.459V133.963a5.459,5.459,0,0,1,10.918,0v69.512A5.459,5.459,0,0,1,88.708,208.934Z" fill="#67393b"/>
    <path id="Tracé_758" data-name="Tracé 758" d="M87.387,167.265a32.216,32.216,0,0,1-28.394-24.557c-2.755-12.678,4.589-22.521,12.023-32.486,3.51-4.706,12.947-17.355,20.72-15.348,3.778.975,3.77,4.537,10.743,14.58,8.041,11.58,10.892,10.937,13.814,17.65.749,1.723,6.027,14.4-.512,26.092C109.978,163.576,97.734,168.059,87.387,167.265Z" fill="#144627"/>
    <path id="Tracé_759" data-name="Tracé 759" d="M108.146,236.642a9.194,9.194,0,0,1-9.194-9.195V110.365a9.194,9.194,0,0,1,18.389,0V227.447A9.2,9.2,0,0,1,108.146,236.642Z" fill="#67393b"/>
    <path id="Tracé_760" data-name="Tracé 760" d="M105.922,162.241C82.1,160.413,62.656,141.858,58.1,120.88c-4.64-21.354,7.729-37.934,20.25-54.718,5.913-7.926,21.807-29.232,34.9-25.852,6.364,1.643,6.35,7.642,18.1,24.559,13.542,19.5,18.345,18.42,23.266,29.729,1.263,2.9,10.153,24.246-.862,43.946C143.972,156.028,123.349,163.579,105.922,162.241Z" fill="#839753"/>
    <path id="Tracé_761" data-name="Tracé 761" d="M218.853,229.423c5.979-3.358-6.947-8.165-14.253-11.564-10.339-4.81-15.444-5.695-39.824-8.009-18.069-1.716-22.078-4.9-35.429-3.356-7.429.859-8.663,2.13-17.955,2.885-9.954.81-12.713-.309-25.354-.214-10.564.079-16.281.122-23.922,1.5-13.292,2.4-19.277,4.52-27.153,3.94a5.851,5.851,0,0,0-3.86.715c-1.537.782-2.394,2.336-5.062,4.448-4.259,3.37-12.122,9.936-12.479,11.545-.614,2.763,37.387,7.961,92.6,11.635C144.388,245.495,201.533,239.149,218.853,229.423Z" fill="#839753"/>
    <path id="Tracé_762" data-name="Tracé 762" d="M175.611,231.656H77.035V173.7s31.6,6.035,42.144,8c8.526,1.59,21.323,1.92,27.157,1.985a6.265,6.265,0,0,1,5.1,3.118l25.894,40.109C178.549,228.793,177.512,231.656,175.611,231.656Z" fill="#964841"/>
    <path id="Tracé_763" data-name="Tracé 763" d="M74.062,175.273,44.256,226.9A3.172,3.172,0,0,0,47,231.656h66.79a3.172,3.172,0,0,0,2.579-5.019L79.388,175.012A3.173,3.173,0,0,0,74.062,175.273Z" fill="#67393b"/>
    <path id="Tracé_764" data-name="Tracé 764" d="M76.07,179.091l-3.258,51.961a.568.568,0,0,0,.567.6h7.3a.568.568,0,0,0,.567-.613l-4.043-51.96A.569.569,0,0,0,76.07,179.091Z" fill="#262626"/>
    <path id="Tracé_765" data-name="Tracé 765" d="M41.427,231.652l0,0h3.923a2.062,2.062,0,0,0,.01-1.329l-3.273-9.72a2.076,2.076,0,0,0-3.934,1.325Z" fill="#262626"/>
    <path id="Tracé_766" data-name="Tracé 766" d="M122.247,231.656l3.16-9.386a2.076,2.076,0,1,0-3.934-1.325l-3.273,9.72a2.063,2.063,0,0,0-.073.991Z" fill="#262626"/>
    <path id="Tracé_767" data-name="Tracé 767" d="M174.587,231.656l3.16-9.386a2.076,2.076,0,1,0-3.934-1.325l-3.272,9.72a2.051,2.051,0,0,0-.073.991Z" fill="#262626"/>
  </g>
</svg>
