<svg xmlns="http://www.w3.org/2000/svg" width="154.392" height="235.774" viewBox="0 0 154.392 235.774">
  <g id="Groupe_117" data-name="Groupe 117" transform="translate(244.427 -649.293)">
    <circle id="Ellipse_27" data-name="Ellipse 27" cx="77.196" cy="77.196" r="77.196" transform="translate(-244.427 702.936)" fill="#d1d0d0"/>
    <path id="Tracé_768" data-name="Tracé 768" d="M-167.067,858.486c-5.995,10.889-26.758,10.961-46.375.161s-24.667-39.271-24.667-39.271,26.758-10.961,46.375-.161S-161.073,847.6-167.067,858.486Z" fill="#144627"/>
    <path id="Tracé_769" data-name="Tracé 769" d="M-165.089,823.183c-6.109-8.458,1.293-24.237,16.531-35.243s38.653-4.611,38.653-4.611-1.292,24.237-16.531,35.242S-158.98,831.642-165.089,823.183Z" fill="#144627"/>
    <path id="Tracé_770" data-name="Tracé 770" d="M-168.55,772.907c-4.353,7.053-18.181,6.414-30.887-1.427s-15.125-26.968-15.125-26.968,18.18-6.413,30.886,1.428S-164.2,765.855-168.55,772.907Z" fill="#839753"/>
    <rect id="Rectangle_481" data-name="Rectangle 481" width="16.39" height="181.32" rx="8.195" transform="translate(-175.426 703.747)" fill="#144627"/>
    <path id="Rectangle_482" data-name="Rectangle 482" d="M7.127,0H72.739a7.127,7.127,0,0,1,7.127,7.127V26.622A39.933,39.933,0,0,1,39.933,66.555h0A39.933,39.933,0,0,1,0,26.622V7.127A7.127,7.127,0,0,1,7.127,0Z" transform="translate(-207.164 670.47)" fill="#eb402a"/>
    <g id="Groupe_116" data-name="Groupe 116">
      <path id="Rectangle_483" data-name="Rectangle 483" d="M3.993,0h0A3.993,3.993,0,0,1,7.987,3.993V21.3a0,0,0,0,1,0,0H0a0,0,0,0,1,0,0V3.993A3.993,3.993,0,0,1,3.993,0Z" transform="translate(-191.97 649.293)" fill="#d1d0d0"/>
      <path id="Rectangle_484" data-name="Rectangle 484" d="M3.993,0h0A3.993,3.993,0,0,1,7.987,3.993V21.3a0,0,0,0,1,0,0H0a0,0,0,0,1,0,0V3.993A3.993,3.993,0,0,1,3.993,0Z" transform="translate(-150.479 649.293)" fill="#d1d0d0"/>
    </g>
    <path id="Tracé_771" data-name="Tracé 771" d="M-153.719,678.173l-26.467,22.652a.5.5,0,0,0,.326.882h7.964a.5.5,0,0,1,.457.709l-10.087,22.237a.5.5,0,0,0,.783.589l26.466-22.652a.5.5,0,0,0-.326-.883h-7.964a.5.5,0,0,1-.457-.708l10.088-22.238A.5.5,0,0,0-153.719,678.173Z" fill="#ffa94b"/>
  </g>
</svg>
