<svg xmlns="http://www.w3.org/2000/svg" width="191.659" height="215.337" viewBox="0 0 191.659 215.337">
  <g id="Groupe_119" data-name="Groupe 119" transform="translate(-358.228 -34.064)">
    <circle id="Ellipse_28" data-name="Ellipse 28" cx="82.197" cy="82.197" r="82.197" transform="translate(371.861 59.536)" fill="#d1d0d0"/>
    <g id="Groupe_118" data-name="Groupe 118">
      <path id="Tracé_772" data-name="Tracé 772" d="M482.417,177.79c-1.844,9.319,10.272,19.568,27.062,22.89s33.74-10.859,33.74-10.859-10.272-19.568-27.062-22.89S484.261,168.47,482.417,177.79Z" fill="#839753"/>
      <path id="Tracé_773" data-name="Tracé 773" d="M468.723,169.956c4.349,1.665,21.02,7.377,38.561-2.358,4.91-2.725,15.6-8.66,20.611-21.613,5.98-15.474-1.741-26.514-2.659-55.409a172.787,172.787,0,0,1,2.326-34.188" fill="none" stroke="#839753" stroke-linecap="round" stroke-miterlimit="10" stroke-width="10"/>
      <path id="Tracé_774" data-name="Tracé 774" d="M488.234,212.627s-24.152-12.414-32.2-14.94-32.2-5.27-32.2-5.27v-41.6s24.152-3.957,32.2-6.887,32.2-16.558,32.2-16.558Z" fill="#878686"/>
      <path id="Tracé_775" data-name="Tracé 775" d="M411.12,249.4H399.185a4.484,4.484,0,0,1-4.116-2.292c-3.2-6.763-12.419-26.654-13.992-34.545-.855-4.284-.374-15.434-.123-20.106a2.537,2.537,0,0,1,2.725-2.108h15.905a2.477,2.477,0,0,1,2.725,2.3c-.253,4.777-.71,15.69.133,19.917,1.409,7.065,8.947,23.75,12.805,32.019C416.336,246.916,414.2,249.4,411.12,249.4Z" fill="#964841"/>
      <rect id="Rectangle_485" data-name="Rectangle 485" width="61.504" height="46.984" rx="8.343" transform="translate(367.723 148.127)" fill="#ffa94b"/>
      <path id="Rectangle_486" data-name="Rectangle 486" d="M3.629,0H9.494a0,0,0,0,1,0,0V19.219a0,0,0,0,1,0,0H3.629A3.629,3.629,0,0,1,0,15.59V3.629A3.629,3.629,0,0,1,3.629,0Z" transform="translate(358.228 160.391)" fill="#eb402a"/>
      <rect id="Rectangle_487" data-name="Rectangle 487" width="10.618" height="95.609" rx="3.294" transform="translate(480.059 121.685)" fill="#eb402a"/>
      <path id="Tracé_776" data-name="Tracé 776" d="M526.669,133.938c-4.795,5.182-16.251,2.38-25.587-6.26s-8.222-25.026-8.222-25.026,16.251-2.38,25.587,6.259S531.465,128.756,526.669,133.938Z" fill="#839753"/>
      <path id="Tracé_777" data-name="Tracé 777" d="M533.47,105.4c-4.985-1.939-6.193-10.79-2.7-19.77s15.35-12.748,15.35-12.748,6.193,10.79,2.7,19.769S538.454,107.339,533.47,105.4Z" fill="#839753"/>
      <path id="Tracé_778" data-name="Tracé 778" d="M523.565,59.355c3.876-1.508,4.817-8.392,2.1-15.376s-11.939-9.915-11.939-9.915-4.816,8.392-2.1,15.376S519.688,60.863,523.565,59.355Z" fill="#839753"/>
    </g>
  </g>
</svg>
