<svg xmlns="http://www.w3.org/2000/svg" xmlns:xlink="http://www.w3.org/1999/xlink" width="231.03" height="246.451" viewBox="0 0 231.03 246.451">
  <defs>
    <clipPath id="clip-path">
      <circle id="Ellipse_24" data-name="Ellipse 24" cx="82.848" cy="82.848" r="82.848" transform="translate(67.703 99.26)" fill="none"/>
    </clipPath>
  </defs>
  <g id="Groupe_114" data-name="Groupe 114" transform="translate(-26.217 -18.507)">
    <circle id="Ellipse_23" data-name="Ellipse 23" cx="82.848" cy="82.848" r="82.848" transform="translate(67.703 99.26)" fill="#195489"/>
    <g id="Groupe_112" data-name="Groupe 112">
      <g id="Groupe_111" data-name="Groupe 111" clip-path="url(#clip-path)">
        <g id="Groupe_110" data-name="Groupe 110">
          <path id="Tracé_742" data-name="Tracé 742" d="M77.835,172.875c-23.932,28.141,1.668,78.12,4.477,83.439C84.4,260.266,91.84,274.074,98.593,273c6.814-1.082,7.443-16.445,17.1-18.723,6.1-1.44,11.075,3.461,12.21,2.035,2.259-2.837-21.636-16.974-21.979-35.818-.216-11.9,9.033-21.969,14.653-28.084,12.747-13.872,24.05-14.349,25.235-23.607.986-7.7-5.67-16.439-10.582-16.281-5.774.186-6.359,12.573-14.246,14.246-6.414,1.36-9.715-6.049-17.909-7.327C90.875,157.542,79.407,171.026,77.835,172.875Z" fill="#839753"/>
          <path id="Tracé_743" data-name="Tracé 743" d="M230.328,139.22c-23.305-6.729-45.739,14.162-54.134,21.98a61.312,61.312,0,0,0-16.281,23.607c-.641,1.731-6.687,18.419-1.221,22.386,1.581,1.147,3.249.6,20.351-2.442,4.95-.88,7.464-1.293,9.362,0,4.58,3.118,3.082,12.391,2.849,13.838-1.842,11.408-12.433,11.7-17.5,22.386-4.646,9.8-3.245,24.151,3.256,28.085,9.366,5.667,33.137-7.979,36.632-24.829,2.623-12.644-8.044-18.071-4.477-29.305,3.59-11.309,15.539-9.4,29.305-24.828,4.41-4.942,16.86-18.894,13.025-32.562C247.841,144.522,231.62,139.594,230.328,139.22Z" fill="#839753"/>
          <path id="Tracé_744" data-name="Tracé 744" d="M108.193,99.645c-.992,9.126,16.556,21.793,32.562,23.607,10.514,1.192,13.255-3.1,26.456-.814,10.1,1.753,13.388,5.115,22.793,4.885,3.468-.086,15.144-.372,17.5-5.7,3.712-8.386-15.159-30.434-38.667-37.446C141.967,76.163,109.468,87.924,108.193,99.645Z" fill="#839753"/>
        </g>
      </g>
    </g>
    <g id="Groupe_113" data-name="Groupe 113">
      <path id="Tracé_745" data-name="Tracé 745" d="M93.514,142.19c-6.366,10.315-26.591,9.38-45.175-2.089s-22.122-39.442-22.122-39.442,26.591-9.38,45.175,2.088S99.88,131.875,93.514,142.19Z" fill="#839753"/>
      <path id="Tracé_746" data-name="Tracé 746" d="M87.8,101.965c4.96,5.486,16.994,2.689,26.878-6.249S123.6,69.6,123.6,69.6s-17-2.689-26.879,6.248S82.842,96.479,87.8,101.965Z" fill="#839753"/>
      <path id="Tracé_747" data-name="Tracé 747" d="M99.381,66.246c2.884-5.909-3.408-14.911-14.053-20.107s-24.5,1.292-24.5,1.292,3.408,14.911,14.054,20.106S96.5,72.155,99.381,66.246Z" fill="#839753"/>
      <path id="Tracé_748" data-name="Tracé 748" d="M107.089,37.911c2.924,3.4,10.256,1.88,16.376-3.388s5.787-15.69,5.787-15.69S119,16.953,112.876,22.221,104.165,34.514,107.089,37.911Z" fill="#839753"/>
      <path id="Tracé_749" data-name="Tracé 749" d="M104.982,171.483H95.625S81.7,122.907,81.7,97.52c0-16.7,19.634-42.174,19.04-59.086-.132-3.763,2-6.906,4.668-6.906h0c2.491,0,4.543,2.745,4.667,6.254C110.652,54.2,91.056,80.6,91.056,97.52,91.056,122.907,104.982,171.483,104.982,171.483Z" fill="#839753"/>
    </g>
    <path id="Tracé_750" data-name="Tracé 750" d="M257.247,230.831a21.733,21.733,0,1,1-34.613-17.5,13.109,13.109,0,0,1-.229-2.393V128.862a13.109,13.109,0,0,1,13.109-13.109h0a13.109,13.109,0,0,1,13.109,13.109v82.073a13.2,13.2,0,0,1-.228,2.393A21.7,21.7,0,0,1,257.247,230.831Z" fill="#d1d0d0"/>
    <circle id="Ellipse_25" data-name="Ellipse 25" cx="14.682" cy="14.682" r="14.682" transform="translate(220.832 215.961)" fill="#eb402a"/>
    <rect id="Rectangle_476" data-name="Rectangle 476" width="13.114" height="65.32" rx="6.557" transform="translate(228.957 161.134)" fill="#eb402a"/>
    <path id="Tracé_751" data-name="Tracé 751" d="M160.522,105.859c3.584,6.471,15.939,6.482,27.6.027s14.618-23.4,14.618-23.4S186.8,76,175.141,82.454,156.939,99.389,160.522,105.859Z" fill="#839753"/>
    <path id="Tracé_752" data-name="Tracé 752" d="M161.033,101.1c-2.924,3.4-10.256,1.88-16.376-3.388s-5.787-15.69-5.787-15.69,10.256-1.88,16.376,3.388S163.957,97.7,161.033,101.1Z" fill="#839753"/>
  </g>
</svg>
