<svg xmlns="http://www.w3.org/2000/svg" width="180.025" height="273.981" viewBox="0 0 180.025 273.981">
  <g id="Groupe_98" data-name="Groupe 98" transform="translate(-51.72 -4.742)">
    <path id="Rectangle_450" data-name="Rectangle 450" d="M57.6,0h44.811a57.6,57.6,0,0,1,57.6,57.6V91.457a0,0,0,0,1,0,0H0a0,0,0,0,1,0,0V57.6A57.6,57.6,0,0,1,57.6,0Z" transform="translate(61.725 41.595)" fill="#144627"/>
    <path id="Rectangle_451" data-name="Rectangle 451" d="M38.129,0H65.958a38.129,38.129,0,0,1,38.129,38.129V73a0,0,0,0,1,0,0H0a0,0,0,0,1,0,0V38.129A38.129,38.129,0,0,1,38.129,0Z" transform="translate(89.689 52.336)" fill="#262626"/>
    <path id="Tracé_672" data-name="Tracé 672" d="M200.581,278.723H82.883a12.773,12.773,0,0,1-12.747-11.966l-8.385-132.64A12.772,12.772,0,0,1,74.5,120.539H208.967a12.772,12.772,0,0,1,12.746,13.578l-8.385,132.64A12.772,12.772,0,0,1,200.581,278.723Z" fill="#144627"/>
    <g id="Groupe_97" data-name="Groupe 97">
      <g id="Groupe_94" data-name="Groupe 94">
        <path id="Tracé_673" data-name="Tracé 673" d="M162.247,182.929v19.829c0,1.329-.644,2.406-1.437,2.406H148.964c-1.28,0-1.922-2.592-1.016-4.107l11.845-19.829C160.7,179.712,162.247,180.786,162.247,182.929Z" fill="#eb402a"/>
        <path id="Tracé_674" data-name="Tracé 674" d="M127.364,192.841l13.653-22.855,13.653,22.855" fill="none" stroke="#eb402a" stroke-linecap="round" stroke-linejoin="round" stroke-width="10"/>
      </g>
      <g id="Groupe_95" data-name="Groupe 95">
        <path id="Tracé_675" data-name="Tracé 675" d="M108.688,202.356h11.845c.794,0,1.438,1.077,1.438,2.406v19.829c0,2.143-1.549,3.217-2.454,1.7l-11.846-19.829C106.766,204.947,107.407,202.356,108.688,202.356Z" fill="#eb402a"/>
        <path id="Tracé_676" data-name="Tracé 676" d="M135.941,237.894H100.956l13.653-22.855" fill="none" stroke="#eb402a" stroke-linecap="round" stroke-linejoin="round" stroke-width="10"/>
      </g>
      <g id="Groupe_96" data-name="Groupe 96">
        <path id="Tracé_677" data-name="Tracé 677" d="M152.217,253.616,143.841,239.6a3.651,3.651,0,0,1,0-3.4l8.376-14.021c.9-1.516,2.454-.442,2.454,1.7v28.042C154.671,254.058,153.122,255.132,152.217,253.616Z" fill="#eb402a"/>
        <path id="Tracé_678" data-name="Tracé 678" d="M149.524,237.894h32.985l-13.653-22.855" fill="none" stroke="#eb402a" stroke-linecap="round" stroke-linejoin="round" stroke-width="10"/>
      </g>
    </g>
    <path id="Tracé_679" data-name="Tracé 679" d="M163.6,110.277c-4.634,7.509-19.359,6.828-32.888-1.521s-16.105-28.714-16.105-28.714,19.359-6.829,32.888,1.52S168.236,102.767,163.6,110.277Z" fill="#839753"/>
    <path id="Tracé_680" data-name="Tracé 680" d="M165.009,80.573c3.277,5.31,13.688,4.828,23.253-1.075s11.387-20.3,11.387-20.3-13.687-4.828-23.253,1.075S161.733,75.264,165.009,80.573Z" fill="#839753"/>
    <path id="Tracé_681" data-name="Tracé 681" d="M162.378,57.319c4.688-2.679,4.576-11.7-.25-20.144S144.9,26.733,144.9,26.733s-4.577,11.7.25,20.144S157.69,60,162.378,57.319Z" fill="#839753"/>
    <path id="Tracé_682" data-name="Tracé 682" d="M168.055,24.571c-3.039-1.737-2.967-7.584.162-13.059s11.169-6.77,11.169-6.77,2.967,7.583-.162,13.059S171.094,26.308,168.055,24.571Z" fill="#839753"/>
    <path id="Tracé_683" data-name="Tracé 683" d="M168.379,128.379h-8.132s2-46.936,2-62.581c0-10.292-1.27-36.989-1.786-47.411a4.056,4.056,0,0,1,4.057-4.256h0a4.055,4.055,0,0,1,4.055,3.854c.5,10.12,1.806,37.385,1.806,47.813C170.379,81.443,168.379,128.379,168.379,128.379Z" fill="#839753"/>
    <path id="Rectangle_452" data-name="Rectangle 452" d="M11.817,0H168.208a11.817,11.817,0,0,1,11.817,11.817v15.3a6.11,6.11,0,0,1-6.11,6.11H6.11A6.11,6.11,0,0,1,0,27.121v-15.3A11.817,11.817,0,0,1,11.817,0Z" transform="translate(51.72 108.722)" fill="#67393b"/>
  </g>
</svg>
