<svg xmlns="http://www.w3.org/2000/svg" xmlns:xlink="http://www.w3.org/1999/xlink" width="163.22" height="231.234" viewBox="0 0 163.22 231.234">
  <defs>
    <clipPath id="clip-path">
      <ellipse id="Ellipse_22" data-name="Ellipse 22" cx="20.916" cy="7.249" rx="20.916" ry="7.249" transform="translate(159.152 162.228)" fill="none"/>
    </clipPath>
  </defs>
  <g id="Groupe_109" data-name="Groupe 109" transform="translate(-60.122 -26.115)">
    <path id="Rectangle_475" data-name="Rectangle 475" d="M8.419,0H115.647a4.3,4.3,0,0,1,4.3,4.3V83.784a4.3,4.3,0,0,1-4.3,4.3H8.419A8.419,8.419,0,0,1,0,79.665V8.419A8.419,8.419,0,0,1,8.419,0Z" transform="translate(60.122 154.979)" fill="#d1d0d0"/>
    <path id="Tracé_724" data-name="Tracé 724" d="M221.709,168.1c-2-7.363-19.874-13.125-41.64-13.125s-39.644,5.762-41.641,13.125a8.207,8.207,0,0,0-1.633,4.913V240.26a8.22,8.22,0,0,0,2.641,6.039c4.466,6.342,20.959,11.05,40.633,11.05s36.166-4.708,40.632-11.05a8.22,8.22,0,0,0,2.641-6.039V173.017A8.207,8.207,0,0,0,221.709,168.1Z" fill="#d1d0d0"/>
    <ellipse id="Ellipse_20" data-name="Ellipse 20" cx="41.833" cy="14.498" rx="41.833" ry="14.498" transform="translate(138.236 154.979)" fill="#fef9f9"/>
    <ellipse id="Ellipse_21" data-name="Ellipse 21" cx="20.916" cy="7.249" rx="20.916" ry="7.249" transform="translate(159.152 162.228)" fill="#262626"/>
    <line id="Ligne_4" data-name="Ligne 4" y1="86.547" transform="translate(122.678 156.516)" fill="none" stroke="#fef9f9" stroke-linecap="round" stroke-miterlimit="10" stroke-width="2" stroke-dasharray="10"/>
    <line id="Ligne_5" data-name="Ligne 5" y1="70.293" transform="translate(189.768 185.519)" fill="none" stroke="#262626" stroke-linecap="round" stroke-miterlimit="10" stroke-width="2" stroke-dasharray="10"/>
    <path id="Tracé_725" data-name="Tracé 725" d="M181.33,157.516c-4.429,7.177-18.5,6.526-31.429-1.453s-15.391-27.441-15.391-27.441,18.5-6.526,31.429,1.453S185.758,150.34,181.33,157.516Z" fill="#839753"/>
    <path id="Tracé_726" data-name="Tracé 726" d="M182.675,129.13c3.131,5.074,13.08,4.614,22.221-1.027s10.882-19.4,10.882-19.4-13.08-4.614-22.221,1.028S179.543,124.056,182.675,129.13Z" fill="#839753"/>
    <path id="Tracé_727" data-name="Tracé 727" d="M180.16,106.908c4.48-2.56,4.373-11.179-.239-19.25s-16.463-9.98-16.463-9.98-4.373,11.179.239,19.251S175.68,109.468,180.16,106.908Z" fill="#839753"/>
    <path id="Tracé_728" data-name="Tracé 728" d="M184.707,86.33c-2.318-2.412-.676-7.753,3.669-11.929s12.065-3.2,12.065-3.2.676,7.753-3.669,11.929S187.025,88.742,184.707,86.33Z" fill="#839753"/>
    <path id="Tracé_729" data-name="Tracé 729" d="M185.9,174.815h-7.772s1.912-44.853,1.912-59.8c0-9.836-1.214-35.349-1.707-45.308a3.877,3.877,0,0,1,3.877-4.068h0a3.877,3.877,0,0,1,3.876,3.683c.48,9.671,1.725,35.727,1.725,45.693C187.806,129.962,185.9,174.815,185.9,174.815Z" fill="#839753"/>
    <g id="Groupe_107" data-name="Groupe 107">
      <g id="Groupe_106" data-name="Groupe 106" clip-path="url(#clip-path)">
        <path id="Tracé_730" data-name="Tracé 730" d="M185.6,180.979H177.83s1.912-44.854,1.912-59.805c0-9.836-1.214-35.349-1.707-45.308a3.876,3.876,0,0,1,3.876-4.067h0a3.875,3.875,0,0,1,3.876,3.682c.48,9.671,1.726,35.728,1.726,45.693C187.513,136.125,185.6,180.979,185.6,180.979Z" fill="#839753"/>
      </g>
    </g>
    <g id="Groupe_108" data-name="Groupe 108">
      <path id="Tracé_731" data-name="Tracé 731" d="M181.535,67.917c6.344-3.625,6.193-15.83-.339-27.26s-12.538-8.3-18.455-4.918-11.051,6.616-4.52,18.046S175.19,71.542,181.535,67.917Z" fill="#eb402a"/>
      <path id="Tracé_732" data-name="Tracé 732" d="M180.922,68.732c6.572,3.195,16.566-3.813,22.321-15.653s-.217-15.034-6.347-18.014-11.7-5.395-17.452,6.445S174.351,65.538,180.922,68.732Z" fill="#eb402a"/>
      <path id="Tracé_733" data-name="Tracé 733" d="M185.036,63.422c7.244-.96,11.714-12.318,9.984-25.368s-8.474-12.421-15.23-11.525-12.732,1.952-11,15S177.792,64.383,185.036,63.422Z" fill="#eb402a"/>
      <path id="Tracé_734" data-name="Tracé 734" d="M180.384,68.191c2.477-4.221-1.68-11.259-9.284-15.721s-10.049-.641-12.359,3.295-4.213,7.528,3.391,11.989S177.907,72.412,180.384,68.191Z" fill="#eb402a"/>
      <path id="Tracé_735" data-name="Tracé 735" d="M185.1,65.9c-2.476-4.221,1.68-11.259,9.284-15.721s10.049-.641,12.359,3.3,4.213,7.528-3.39,11.989S187.575,70.118,185.1,65.9Z" fill="#eb402a"/>
      <path id="Tracé_736" data-name="Tracé 736" d="M181.859,63.046c-4.2-.025-7.57-6.179-7.525-13.746s3.935-7.695,7.853-7.672,7.4.194,7.357,7.761S186.059,63.071,181.859,63.046Z" fill="#f99254"/>
      <path id="Tracé_737" data-name="Tracé 737" d="M182.566,63.308c-3.35,1.714-8.57-1.789-11.659-7.825s-.047-7.744,3.078-9.343,5.966-2.9,9.055,3.135S185.916,61.593,182.566,63.308Z" fill="#f99254"/>
      <path id="Tracé_738" data-name="Tracé 738" d="M182.662,63.743c3.35,1.715,8.57-1.788,11.659-7.824s.047-7.744-3.078-9.343-5.966-2.9-9.055,3.134S179.312,62.029,182.662,63.743Z" fill="#f99254"/>
      <path id="Tracé_739" data-name="Tracé 739" d="M182.411,74.25c-4.893-.029-8.818-7.2-8.767-16.015s4.585-8.965,9.15-8.938,8.623.226,8.571,9.042S187.3,74.278,182.411,74.25Z" fill="#eb402a"/>
      <path id="Tracé_740" data-name="Tracé 740" d="M181.559,71.226c-3.188,1.707-8.267-1.565-11.344-7.309s-.184-7.441,2.79-9.034,5.68-2.9,8.757,2.849S184.748,69.518,181.559,71.226Z" fill="#eb402a"/>
      <path id="Tracé_741" data-name="Tracé 741" d="M181.663,71.226c3.188,1.707,8.267-1.565,11.344-7.309s.185-7.441-2.789-9.034-5.681-2.9-8.758,2.849S178.474,69.518,181.663,71.226Z" fill="#eb402a"/>
    </g>
  </g>
</svg>
