<svg xmlns="http://www.w3.org/2000/svg" width="214.535" height="228.717" viewBox="0 0 214.535 228.717">
  <g id="Groupe_104" data-name="Groupe 104" transform="translate(-35.965 -25.874)">
    <circle id="Ellipse_15" data-name="Ellipse 15" cx="15.806" cy="15.806" r="15.806" transform="translate(178.739 62.262)" fill="none" stroke="#649dd2" stroke-miterlimit="10" stroke-width="6"/>
    <path id="Tracé_701" data-name="Tracé 701" d="M211.49,171.592c-4.89-3.876-14.513.124-21.494,8.934s-7.792,25.988-7.792,25.988,14.513-.125,21.5-8.935S216.38,175.467,211.49,171.592Z" fill="#839753"/>
    <path id="Tracé_702" data-name="Tracé 702" d="M211.387,206.584c-3.072,4.44.923,12.527,8.923,18.061s20.048,1.98,20.048,1.98-.924-12.526-8.924-18.061S214.459,202.143,211.387,206.584Z" fill="#839753"/>
    <path id="Tracé_703" data-name="Tracé 703" d="M209.653,138.713h8.132s-2.451,43.6-2.794,57.687c-.351,14.407,4.27,33.313,4.786,42.7a3.847,3.847,0,0,1-4.057,3.833h0a3.9,3.9,0,0,1-4.056-3.471c-.5-9.113-4.805-29.084-4.805-43.06C206.859,182.311,209.653,138.713,209.653,138.713Z" fill="#839753"/>
    <path id="Tracé_704" data-name="Tracé 704" d="M218.882,176.669H195.809a8.414,8.414,0,0,1-8.414-8.414v-7.809a28.108,28.108,0,0,0-28.108-28.108H103.4a3.6,3.6,0,0,1-3.6-3.6V96.151a3.813,3.813,0,0,1,3.813-3.813H159.58A67.815,67.815,0,0,1,227.4,160.154v8A8.512,8.512,0,0,1,218.882,176.669Z" fill="#d1d0d0"/>
    <rect id="Rectangle_470" data-name="Rectangle 470" width="97.031" height="40" rx="3.786" transform="translate(35.965 92.338)" fill="#d1d0d0"/>
    <path id="Tracé_705" data-name="Tracé 705" d="M104.421,154.617h0c-26.615,0-47.211-10.406-43.923-33.783l6.656-33.1c1.142-8.119,8.938-14.212,18.18-14.212H123.5c9.248,0,17.048,6.1,18.19,14.22l6.655,33.087C151.632,144.211,131.036,154.617,104.421,154.617Z" fill="#144627"/>
    <path id="Tracé_706" data-name="Tracé 706" d="M104.421,87.1h0c-5.643,0-10.01-8.2-9.312-17.493L96.1,56.452c.242-3.226,1.895-5.648,3.854-5.648h8.94c1.96,0,3.614,2.424,3.856,5.652l.987,13.149C114.43,78.895,110.064,87.1,104.421,87.1Z" fill="#144627"/>
    <path id="Tracé_707" data-name="Tracé 707" d="M144.29,50.8c0,3.467-1.855,6.237-4.086,6.095-8.533-.544-28.089-1.735-35.783-1.735S77.17,56.355,68.638,56.9c-2.231.142-4.087-2.628-4.087-6.095h0c0-3.466,1.856-6.236,4.086-6.094,8.534.544,28.092,1.735,35.784,1.735s27.25-1.191,35.783-1.735c2.231-.142,4.086,2.628,4.086,6.094Z" fill="#144627"/>
    <path id="Tracé_708" data-name="Tracé 708" d="M212.751,234.761c3.039,1.737,2.967,7.584-.162,13.06s-11.169,6.77-11.169,6.77-2.967-7.584.162-13.06S209.712,233.025,212.751,234.761Z" fill="#839753"/>
    <circle id="Ellipse_16" data-name="Ellipse 16" cx="18.574" cy="18.574" r="18.574" transform="translate(210.351 125.417)" fill="none" stroke="#649dd2" stroke-miterlimit="10" stroke-width="6"/>
    <circle id="Ellipse_17" data-name="Ellipse 17" cx="11.575" cy="11.575" r="11.575" transform="translate(174.611 158.537)" fill="none" stroke="#649dd2" stroke-miterlimit="10" stroke-width="6"/>
    <circle id="Ellipse_18" data-name="Ellipse 18" cx="7.443" cy="7.443" r="7.443" transform="translate(217.911 95.541)" fill="none" stroke="#649dd2" stroke-miterlimit="10" stroke-width="6"/>
    <circle id="Ellipse_19" data-name="Ellipse 19" cx="7.443" cy="7.443" r="7.443" transform="translate(199.415 28.874)" fill="none" stroke="#649dd2" stroke-miterlimit="10" stroke-width="6"/>
  </g>
</svg>
