<svg xmlns="http://www.w3.org/2000/svg" viewBox="0 0 488.88 446.77"><defs><style>.cls-1{fill:#029dc0;}</style></defs><title>feuille</title><g id="Layer_2" data-name="Layer 2"><g id="Layer_1-2" data-name="Layer 1"><path class="cls-1" d="M484.73,424.84c-6.3-3.77-11.93-8.51-18.18-12.26a181.43,181.43,0,0,1-34.94-27.17c-1.75-1.74-2.05-2.88-.69-5.38,3.13-5.78,8.59-9.64,11.65-15.48,4.92-9.41,9.83-18.81,14.43-28.41,5.79-12.09,7-24.43,7.23-37.25-1.52.27-2.9-.62-4.68.38-2.23,1.23-5.39-1.67-4.73-4.15.57-2,.26-4,.57-5.9.13-.83-.57-2.52,0-3.14-.42.69.21,2.24.08,3-.31,1.9,0,3.9-.57,5.9-.66,2.48,2.5,5.38,4.73,4.15,1.78-1,3.16-.11,4.68-.38a9.37,9.37,0,0,0-.18-6h-1.44c-1.6,0-2.83-.54-3.22-2.23a3.4,3.4,0,0,1-.09-.46,3.4,3.4,0,0,0,.09.46c.39,1.69,1.62,2.23,3.22,2.23h1.44c-.28-1-.57-1.95-.86-3-.46-5.82-2.56-11.19-4.56-16.57a6.07,6.07,0,0,1-1.16,2.79,6.1,6.1,0,0,0,1.08-2.68l-.27-1.54c-.55.11-1.39.15-1.89.27.47-.15,1.42-.18,2-.29-.42-8.19-3.71-15.73-5.54-23.6-1.72-7.4-4.92-14.43-7.15-21.72-3.68-11.94-10.83-22.3-15-34-.57-1.69-2.06-3.61-4-3.15-2.39.62-1.25,3.09-1.15,4.62.86,12.34-2.12,24.07-5.42,35.77,3.31.83,4.68,2.46,1.43,4.93-2.28,1.71-2.58,2.71,0,4.23,2.13,1.25,2.65,2.88,1.05,4.14,1.49-1.23,1-2.76-1.17-4.06-2.68-1.62-2.24-2.52,0-4.23,3.25-2.47,1.88-4.1-1.43-4.93-2,.85.22,2.38-.78,3.79-7.39,10.15-11.24,22.11-16.39,33.36-4.41,9.61-6.33,20.35-10.55,30.07a89.93,89.93,0,0,0-7.95,38.71c.11,4.64.42,9.35.67,14.64a17.88,17.88,0,0,1-2.48-1.75C369.71,334.53,356.2,321,346.89,304a11.83,11.83,0,0,1-1.3-5.75c-.31-21.72,6.18-41.35,17.76-59.65,4-6.25,10.55-10,13.84-16.68-1.72-1-.06-3.23-1.64-4.34a4.86,4.86,0,0,0-2,3.13,4.84,4.84,0,0,1,2.05-3.21c1.58,1.11-.08,3.34,1.64,4.34,9.28-10.05,15-21.91,18.22-35.13,1.88-7.48,3.4-14.79.88-22.48-3.57-10.87-6.33-22-10.33-32.74-2.7-7.25-5.94-14.47-11.07-20.53-11.35-13.4-24.18-25.34-37.18-37.07-1.19-1.09-2.21-2.36-4.5-2,4.39,12.18,8.79,24,9.62,36.7.59,9.12,1.7,18.39-1.08,27.23a195.41,195.41,0,0,0-5.37,22c2.63.11,3.06,1.84,3,3.93h0c0-2.09-.42-3.81-3-3.92l-1.46,2.43s0,0,0,.06l-.69,1.38s0,0-.07,0a3.63,3.63,0,0,0-1.23,2.93h0a11.53,11.53,0,0,1-.6,1.14l1.24-.53h0l-1.28.54c-1.68,2.32-1.69,5.24-2.77,7.78h0a15.5,15.5,0,0,0-3.69,8.77,4,4,0,0,0,3,.75,3.94,3.94,0,0,1-3.07-.73c-2.83,6-5,12.26-7.72,18.26-4,8.95-7.61,18-9.31,27.66-.64,3.64-.5,7.42-.72,11.3-.72-.29-1.1-.33-1.26-.54-13.3-17.06-21-37.24-31.11-56.06a3.81,3.81,0,0,1,.79-5c13.16-13.41,17.71-30,17.65-48.23h.06a60.85,60.85,0,0,0-.74-17c-.4.27-1,.45-1.18.83-.74,1.29,1.4,5.49-1.87,4.31,3.18,1.11,1.07-3,1.81-4.33.18-.38.78-.56,1.18-.83l-.06-1h.08c.25-4.16.65-8.36-.91-12.36-5.81-14.93-13.49-28.43-25.11-40-14.7-14.63-30.14-27.73-48.2-38.26C200.68,10.32,180.31,5.75,160,0c13.9,14.47,25,31,36.3,47.39,2.91,4.23,6,8.27,8.55,12.78,3,5.28,5.28,11,9.18,15.74l0,0c3.22,6.9,6.67,13.74,7.79,21.36a65.39,65.39,0,0,0,3.91,13.86c2.53,6.59,4.66,13.33,7.19,20.66-2.71-1.18-3.83-2.84-5.09-4.28-10.17-11.63-18.24-24.8-27.62-37-7.37-9.52-14.54-19-24.36-26.16l.05,0c-2.65-2.67-5.09-5.6-8.41-7.42a8.15,8.15,0,0,1-.46,1l-.07,0a7.29,7.29,0,0,0,.45-1,4.84,4.84,0,0,0-.84-.27v0l-.08,0v.06a1.41,1.41,0,0,0-1.37-1.19h0c-.11-.6-.43-.9-1.06-.79a10.44,10.44,0,0,1-3,.29l-.5-.08L161,55a10.44,10.44,0,0,0,3-.29c-1.84-2.23-5-3-6.48-5.55h0c-11.56-9.23-23.63-17.79-37-24C110,20.36,99.34,15.59,87.67,13.94c-4.91-.68-10-.58-14.69-1.68s-9.19-.75-13.75-.39c-11.2.84-22.38,2.29-33.61,2C17.54,13.66,9.49,12.68,0,11.94c26.67,38,62.23,61,104.39,74.75a14.34,14.34,0,0,0,.61-3.47,14.46,14.46,0,0,1-.61,3.53.65.65,0,0,0,.61.31l.07,0a9.93,9.93,0,0,0,6.38,1.57c1.22-1.35,1.59-.42,1.87.72l2.05.38a8.47,8.47,0,0,1,.86-1.52c3.63,1.15,7,.89,10.13-1.43a6.55,6.55,0,0,1,1.76.79,6.77,6.77,0,0,0-1.77-.78v.06a10.63,10.63,0,0,1-10.11,1.42,8.47,8.47,0,0,0-.86,1.52l10,3.17c1.15,1.06,2.55.94,4,.83h0c2.11,1.49,4.61,1.35,7,1.75a9.16,9.16,0,0,1,.69-.85,9,9,0,0,0-.68.85,4.38,4.38,0,0,0,3.09.84l9,1.33.43.15.45-.12,10,1.37c.17-.71,0-1.84,1-1.77a.87.87,0,0,1,.84.51.89.89,0,0,0-.81-.45c-1-.07-.86,1.06-1,1.77a1.81,1.81,0,0,0,2,.4v-.06l1.07.18c1.84-3.84,4.15-5.92,8.09-2.25.45.43,1.23,1.08,1.59.94,2.21-.86,3-.58,3.13.19-.18-.73-1-1-3.12-.13-.36.14-1.14-.51-1.59-.94-3.94-3.67-6.25-1.59-8.09,2.25,3.93,1.71,8.19,1.23,12.28,1.89v0a17.55,17.55,0,0,0,6.83,1.19c4.77-.41,8.18,1.81,11.27,5.19C205.64,122,216.36,137.54,227.27,153c1,1.37,1.63,2.68.75,4.29a55.29,55.29,0,0,0-4.89-3.59q-17.69-10.33-35.49-20.47a47.88,47.88,0,0,0-9.21-3.76c-11.9-3.79-24.28-5.56-36.28-9.06-5.24-1.55-11-2.89-16.71-1.55a28.48,28.48,0,0,1,4.81,3.41,5,5,0,0,1,1.48,2.49,5.13,5.13,0,0,0-1.47-2.43,28.48,28.48,0,0,0-4.81-3.41c-4.18-2.22-8.79-2.85-13.38-3.07C96,115.06,81,111.52,67.41,102.21a127,127,0,0,0-11.86-7.12,132.42,132.42,0,0,0,8.52,18.37c6.15,10.41,14.38,19,23,27.41,9.92,9.63,20.18,18.67,32.36,25.52,7.69,4.33,15.52,8.36,23.52,12,10.57,4.76,21.54,8.87,33.4,9.44a29.4,29.4,0,0,0-2.76-2.09c-1.15-.7-2.19-1.22-2.53-1.94.35.7,1.38,1.2,2.52,1.88a29.4,29.4,0,0,1,2.76,2.09l2,.15c.31-2.2-.75-4.79,2-6.2,1.08-.55,1.73-2.55,3.26-1.45a2.91,2.91,0,0,1,.31.3h0a3.57,3.57,0,0,0-.28-.27c-1.53-1.1-2.18.9-3.26,1.45-2.8,1.41-1.74,4-2,6.2,1.62.94,3.38.57,5.16.4v0a77.84,77.84,0,0,0,20.89,4.41,241.51,241.51,0,0,1,37.42,5.94c14.31,3.45,26.92,9.08,32.92,24,.79,2,2.27,3.66,3.27,5.58.63,1.25,1.94,2.42,1.09,4.18-13.65-6.28-27.37-12.43-40.85-19-16.26-7.88-33.35-9.72-50.93-10-.61.46-1.3,1.61-1.74.72.45.87,1.13-.28,1.73-.73l-2-.24h0c-3-.23-5.9-.55-8.79.45-.1,1.33.11,2.77-.36,3.94-.58,1.44-1.76,2.79-3.15.53-.81-1.32-1.5-2.7-3.41-2.1a1.13,1.13,0,0,0-.9,1,1.12,1.12,0,0,1,.9-1c1.91-.6,2.6.78,3.41,2.1,1.39,2.26,2.57.91,3.15-.53.47-1.17.26-2.61.36-3.94-5.13.35-10.25.95-15.38,1-6.87,0-13.62.63-20.62-1.17-14.33-3.7-26.25-12-38.91-18.85-1.13-.63-2.13-2.35-4.13-.93a192.11,192.11,0,0,0,26.76,46c16.74,21.7,38.84,37.07,64.47,47.25,12.47,4.95,25.13,8.73,38.65,8.95h0c2,.17,4,.28,6,.52,16.45,2,32.37,7.57,49.2,7.12,10.2-.27,19.71,4.61,30,4.27,2.67-.09,4.86,1.91,6.61,4q15.77,19.23,31.47,38.51c.61.77,2.29,1.38,1,2.77s-1.93-.56-2.71-1c-14.22-8.23-28.11-17.14-44.47-20.77h0a14.93,14.93,0,0,0-9-1.54c.66,2.29,1.89,3.46,3.71,3.5-1.82,0-3.07-1.2-3.75-3.5a79,79,0,0,0-14-.86c-.19.29-.37.41-.54.4.17,0,.33-.13.51-.4l-1-.05h-5c-.47.74-1,.95-1.47.63.51.3,1,.11,1.43-.63l-2,.12h0l-11,.57a.08.08,0,0,0,0,0,22,22,0,0,0-12,.15c-.56,1.82-1.74,3.69-.78,5.29-1.06-1.62.15-3.53.72-5.39l-1.92.18,0,.06c-13.66-1.44-26,4.16-38.65,7.6-14.9,4.06-28.75,3.61-42.43-3.71-3.86-2-8.19-3.23-12.75-5a6.43,6.43,0,0,0,2.37,4.55c3.71,3.57,7.49,7.07,11.13,10.72,9.8,9.76,20.21,19,32,26.12,12.94,7.89,26.74,14.38,40.2,21.47v.22c17.19,9.26,36.39,11.31,55,15.45.09-.78.12-1.92.67-2.28a4.39,4.39,0,0,0-.51,2.16,1.78,1.78,0,0,0,1.85.37s0,0,0,.06l3,.13,5-4.65,0,0-4.82,4.49,5.68.23a1.42,1.42,0,0,0,.12.13l3,.24c1.11-1.52-3-2.68-.75-4.21-1.82,1.44,2,2.62.91,4.09,4.23,1.13,8.51.74,12.87.64,0,0,0,.08,0,.12l6.08-.1c.26-.28.51-.61.76-.9-.21.26-.42.54-.64.78l2.83-.08.05.12h2.95a.53.53,0,0,1,.13-.13h.76a.75.75,0,0,1,.11.13l2-.12a3.65,3.65,0,0,1,.68-1.11,4,4,0,0,0-.58,1,5.53,5.53,0,0,0,3.85-.49l0,0,1.07-.1a5.1,5.1,0,0,1,.67-1.42,5.45,5.45,0,0,0-.59,1.31l2.8-.24.06.1c14.17-2.23,28.06-5.5,41.24-11.33,3.75-1.66,6.42-.94,8.83,2.58,2.61,3.83,6.25,6.85,9.47,10.19a240.23,240.23,0,0,0,60.1,45.63c9.75,5.22,17.44-.1,22.52-7.4h0A9,9,0,0,0,484.73,424.84Z"/></g></g></svg>