<svg xmlns="http://www.w3.org/2000/svg" viewBox="0 0 350.96 428.8"><defs><style>.cls-1{fill:#7376a8;}.cls-2{fill:#5c4e6a;}</style></defs><title>feuillegrise</title><g id="Layer_2" data-name="Layer 2"><g id="Layer_1-2" data-name="Layer 1"><path class="cls-1" d="M83.09,204.68c-3.54-2.37-5-6-6.26-9.88a3.47,3.47,0,0,1,1,.16C95,203,112,199.67,129,193.86a91.69,91.69,0,0,1,26.15-5.32c10.14-.41,19.8.81,29,5.24.39.44,1,1,1.37.45s-.59-.64-1-.88c-.49-2.2-1.9-3.81-3.4-5.39-6.29-6.6-12.66-13.14-18.78-19.9-3-3.31-5.37-7.4-9.16-9.75-14.8-9.23-30.8-12.31-47.93-8.16-15.52,3.76-31.11,6-47,2.48L53.93,145c4-.61,7,2.75,10.92,2.67,8.85-.2,17.67.91,26.49-1.69a78.27,78.27,0,0,1,10.53-2.41c12-1.8,24.11-3.92,36.28-.89.39.23.76.47,1.16.67,0,0,.19-.22.29-.34l-1.27-.54c-.21-2.24-2-3.35-3.43-4.7C127,130.19,118.79,123,111.3,115c-8.91-9.46-20.28-10.4-31.91-10.07-12,.33-23.77,4.08-35.89,1.76-2.75-.53-5.56-.75-8.34-1.12-1.91-3-3.19-6.45-5.71-9.09,1.95-.13,3.5,1,5.12,1.77C41,101.52,48,101.66,54.94,101.4c12.16-.45,24-4.92,36.37-2.86.67.11,1.68.45,2.16-.75C86.39,89.4,78.08,82.21,69.84,75.05c-7.43-6.45-16-11.15-26.63-8.19a53.93,53.93,0,0,1-9.72,2c-2.17.18-3.7.8-3.86,4.22-.45,9.23-.89,9.21-7.17,9.59-4.81-4.17-6.13-10.6-9.67-15.33C8.59,61.75,6.18,55.54,3,49.58c-4.15-7.75-3.82-15.52,0-23C8.68,15.56,15.39,5.5,28.22,1.07c6.89-2.38,13.13-.16,19.52.73,11.8,1.66,22.77,6.26,33.52,11.26,2.61,3.09.67,6.45.92,9.45.36,4.4-1.44,6.59-3.59,9.58,2.51,0,5,1.36,6.92-1.19.5-.65,1.4-1.31,2.09-.61a2.68,2.68,0,0,1,.4,2.29c-1.22,3.79.76,2.74,3,2.35s4.57-1.73,7.28-.87c3.84,1.21,4.4-1.21,3.41-4.14s-2.33-5.49-3.52-8.22l10.07,3.88c.68,4.57,1.55,9.13,2,13.73,1.24,12.72-2,25.11-3.48,37.57-1.54,12.93,1.94,23.8,10.4,32.91,8.92,9.6,18.75,18.37,28.19,27.5.44.42.9,1,2.08,0C144,130,144.56,122,145.25,114c.73-8.57,1.66-17.13,2.55-25.68A111.33,111.33,0,0,0,145.9,53c-1.42-6.59-5.07-12.16-7.76-18.17,4.93.22,8.17,3.89,12.17,6l1,.81v-.17c3.54,12.19,5.86,24.58,4.86,37.32q-1.39,17.52-3.58,35c-1.31,10.57.48,20.75,3.11,30.85,2.23,8.53,8.38,14.65,14.13,20.74,6.09,6.47,11.21,13.87,18.35,19.34l.48.43-.41-.51c.27-7.11-.64-14.23.58-21.34,2.16-12.66,8.08-24.28,8.83-37.46.7-12.15-.1-24.09-1.34-36-1.08-10.4-5.43-19.92-10-29.24,6.42,1.33,9.79,6.61,14,10.8,0,4.51,3.08,8,3.93,12.25,3.55,17.65,2.64,35.34.43,53-1.46,11.72-8.1,22-9,34-.93,11.67.78,22.7,7.53,32.2,4,5.64,8,11.44,12.63,16.55,3.44,3.76,5.67,8.66,10.25,12.17,0-5.81-.17-10.76,0-15.7.58-15,8.24-27.86,12.74-41.62,5.05-15.43,7.93-30.42,2.77-46.22a55.46,55.46,0,0,1-1.38-7.31c4.5,8.07,11,15,14,23.95-2.19,9.4-1.77,19.24-5.78,28.39-3.76,8.59-6,17.78-9.89,26.4-6.78,15.08-7.89,30.35.32,45.45.74,1.35,1.4,2.68,3.2,2.75,5,8,11.28,15.11,17.28,22.38,4.65,5.63,10,10.7,14.32,16.62a3,3,0,0,0,2.53,1.62c-4.09-26,2.66-50.93,6.91-76.86,10.72,11.15,19,23.37,22.68,37.21,4.07,15.33,4.89,31.44-4.32,46.18-2.44,3.91-3.88,8.56-7.13,11.88-2.5,2.54-1.42,4.28.08,6.39,6.5,9.19,13.14,18.3,19.48,27.6,8.31,12.2,16,24.7,21.59,38.5,4.08,10.15,8.92,20,13.33,30,1.75,4,3,8.1,1.68,12.58-1.89,6.45-8.53,9-14.28,5.52a20.43,20.43,0,0,1-7.85-9.44c-4.28-9.54-8.67-19-12.73-28.65-7.76-18.4-18.65-35-29.5-51.61-2-3.06-4.32-6-5.87-9.23s-3.08-3.92-6.43-2.22c-6.21,3.16-13,3.6-19.92,3.53-18.34-.18-35.06-6.7-51.89-12.84-4.76-1.74-9.42-3.77-15.93-4.87,8.81-4.74,16.44-8.56,24.51-11.28,12.51-4.22,25.75-5.21,38.57-8.13,1.71-.39,4.22-.54,1.86-3.24q-11.64-13.32-23.38-26.55c-1.07-1.2-2.33-2.47-4.28-2.07-1.36-6.36-5.59-12.06-10.41-14.47-9.17-4.58-19-8.46-29.82-8.64-13.09-.22-25,4.39-37.17,8.07-4.53,1.37-9.56,1.15-13.68,3.9-3.84-2.08-7.89-3.82-11.31-6.63,5.86-.95,12-1.09,17.53-3,11.41-4,22.83-7.58,34.81-9.49s23.44-.08,34.46,4.63c2.93,1.25,6,1.78,8.93,3a2.17,2.17,0,0,0,2.62-.81,1.82,1.82,0,0,0-.16-2.68c-9.36-10.22-15.45-23.2-29.54-29.33-15.68-6.83-31-11-48.05-6.71-8.77,2.23-17,6.59-26.33,6.71-6.89.09-13.61,2-20.74.84C90.8,205.34,87,203.4,83.09,204.68ZM61.21,48.1A31.08,31.08,0,0,0,69.27,63c8.65,9,19.26,16,27,26.06a3.87,3.87,0,0,0,.71.69c.75.59,1.36,1.7,2.48,1.26s.78-1.7.82-2.63c.18-4.14.24-8.27.44-12.41.4-8,1.88-15.76,2.61-23.66.65-7-4.75-9.7-8.57-13.5-.85-.84-2.62-.37-3.65,1.38-1.28,2.17-1.6,4.74-2.82,7.14C86,44.54,87.69,39.92,84.19,39c-2.75-.75-4.25-3-6.15-3.72-2.61-.93-2.3,4.1-4.82,5.15-.46.19-1,.28-1.41.51-1.13.61-2,1.58-1.26,2.81s1.77.34,2.6-.06c2.56-1.23,3.65-.71,2.43,2.13-.46,1.07.28,2.82-1.58,3.22-2.11-4.28-3.41-4.54-5.77-.9C66.45,50.86,64.57,51,61.21,48.1ZM20.66,44c-1.61,1.71-2.61,3.56-5.26,1.47C12.18,43,11.11,47.39,9,48.34c-1.91.88.5,2.47,1.52,3.66,1.85,2.17,4,4,2.88,7.74-.87,2.86.87,5.1,4.48,4.86,2.16-.15,4.33,0,6.49-.07,1,0,2.59,0,2.41-1.07-.47-2.89.13-6.09-1.62-8.64s-3.51,0-5.25.39c-1.31.3-2.77.87-3.43-.78-.48-1.19-.76-3.11.81-3.45C21.29,50.1,20.18,46.87,20.66,44ZM41.1,8.64c0-.69-.21-1.63-.87-1.5-3.35.7-7,0-10.09,1.77a1.94,1.94,0,0,0-.65,2.63c.43,1,1.32.67,2.12.38a20.29,20.29,0,0,1,7.72-1.37C40.47,10.59,41.1,9.82,41.1,8.64ZM24.92,51.79c1.07-2.11,3-4,1.59-7C23.5,46.78,25,49.53,24.92,51.79Z"/><path class="cls-2" d="M186.28,60.51c4.61,9.32,9,18.84,10,29.24,1.24,11.94,2,23.88,1.34,36-.75,13.18-6.67,24.8-8.83,37.46-1.22,7.11-.31,14.23-.58,21.34l-.07.08c-7.14-5.47-12.26-12.87-18.35-19.34-5.75-6.09-11.9-12.21-14.13-20.74-2.63-10.1-4.42-20.28-3.11-30.85q2.16-17.45,3.58-35c1-12.74-1.32-25.13-4.86-37.32,6.83,1.94,13.77,3.68,19.15,8.73,3.18,3,7.54,3.81,11,6.26C183.27,57.66,185.08,58.68,186.28,60.51Z"/><path class="cls-2" d="M240.17,120.65a55.46,55.46,0,0,0,1.38,7.31c5.16,15.8,2.28,30.79-2.77,46.22-4.5,13.76-12.16,26.66-12.74,41.62-.2,4.94,0,9.89,0,15.7-4.58-3.51-6.81-8.41-10.25-12.17-4.67-5.11-8.64-10.91-12.63-16.55-6.75-9.5-8.46-20.53-7.53-32.2.94-12,7.58-22.28,9-34,2.21-17.68,3.12-35.37-.43-53-.85-4.24-3.94-7.74-3.93-12.25,7.61,7.1,14.43,15,21.28,22.75C228.68,102.11,234,111.72,240.17,120.65Z"/><path class="cls-2" d="M58.16,152.63c15.9,3.55,31.49,1.28,47-2.48,17.13-4.15,33.13-1.07,47.93,8.16,3.79,2.35,6.16,6.44,9.16,9.75,6.12,6.76,12.49,13.3,18.78,19.9,1.5,1.58,2.91,3.19,3.4,5.39l-.36.43c-9.17-4.43-18.83-5.65-29-5.24A91.69,91.69,0,0,0,129,193.86C112,199.67,95,203,77.81,195a3.47,3.47,0,0,0-1-.16C70.21,180.92,63.87,166.91,58.16,152.63Z"/><path class="cls-2" d="M83.09,204.68c3.94-1.28,7.71.66,11.35,1.28,7.13,1.19,13.85-.75,20.74-.84,9.33-.12,17.56-4.48,26.33-6.71,17-4.32,32.37-.12,48.05,6.71,14.09,6.13,20.18,19.11,29.54,29.33a1.82,1.82,0,0,1,.16,2.68,2.17,2.17,0,0,1-2.62.81c-2.9-1.2-6-1.73-8.93-3-11-4.71-22.42-6.56-34.46-4.63s-23.4,5.5-34.81,9.49c-5.52,1.94-11.67,2.08-17.53,3-7.63-3.25-13.52-9.06-19.09-14.7A134,134,0,0,1,83.09,204.68Z"/><path class="cls-2" d="M138.14,34.79c2.69,6,6.34,11.58,7.76,18.17a111.33,111.33,0,0,1,1.9,35.39c-.89,8.55-1.82,17.11-2.55,25.68-.69,8-1.21,15.94,2.18,23.28-1.18,1-1.64.4-2.08,0-9.44-9.13-19.27-17.9-28.19-27.5-8.46-9.11-11.94-20-10.4-32.91,1.5-12.46,4.72-24.85,3.48-37.57-.45-4.6-1.32-9.16-2-13.73,8.5.54,16.14,4.05,23.86,7.16C134.1,33.54,136.11,34.15,138.14,34.79Z"/><path class="cls-2" d="M138.15,142.7c-12.17-3-24.23-.91-36.28.89A78.27,78.27,0,0,0,91.34,146c-8.82,2.6-17.64,1.49-26.49,1.69-4,.08-6.93-3.28-10.92-2.67V145c.1-1.18-.68-1.37-1.58-1.42-6.73-12.2-11.76-25.17-17.17-37.95,2.77.36,5.58.58,8.33,1.11,12.12,2.32,23.92-1.43,35.89-1.76,11.63-.33,23,.61,31.91,10.07,7.49,8,15.74,15.19,23.6,22.79,1.39,1.35,3.22,2.46,3.43,4.7Z"/><path class="cls-2" d="M242,247.59c-1.8-.07-2.46-1.4-3.2-2.75-8.21-15.1-7.1-30.37-.32-45.45,3.88-8.62,6.13-17.81,9.89-26.4,4-9.15,3.59-19,5.78-28.39,7.12,11.72,9.11,24.6,9.41,38.1a269.56,269.56,0,0,1-1.4,30.49A19.34,19.34,0,0,1,259,222C253.41,230.61,249.37,240.21,242,247.59Z"/><path class="cls-2" d="M132.22,249.48c4.12-2.75,9.15-2.53,13.68-3.9,12.12-3.68,24.08-8.29,37.17-8.07,10.83.18,20.65,4.06,29.82,8.64,4.82,2.41,9.05,8.11,10.41,14.47-3.66,1.85-7.46,3.47-11,5.6-5.14,3.12-10.57,1.9-15.86,1.33a199,199,0,0,1-22-3.43C159.84,260.86,146.15,254.79,132.22,249.48Z"/><path class="cls-2" d="M22.46,82.68c6.28-.38,6.72-.36,7.17-9.59.16-3.42,1.69-4,3.86-4.22a53.93,53.93,0,0,0,9.72-2c10.63-3,19.2,1.74,26.63,8.19,8.24,7.16,16.55,14.35,23.63,22.74-.48,1.2-1.49.86-2.16.75C78.94,96.48,67.1,101,54.94,101.4c-7,.26-13.92.12-20.37-3.15-1.62-.82-3.17-1.9-5.12-1.77C25.8,92.55,24.67,87.34,22.46,82.68Z"/><path class="cls-2" d="M98.17,21.7c1.19,2.73,2.56,5.41,3.52,8.22s.43,5.35-3.41,4.14c-2.71-.86-4.91.45-7.28.87s-4.22,1.44-3-2.35a2.68,2.68,0,0,0-.4-2.29c-.69-.7-1.59,0-2.09.61-1.94,2.55-4.41,1.21-6.92,1.19,2.15-3,4-5.18,3.59-9.58-.25-3,1.69-6.36-.92-9.45C87.74,14.3,92.19,19.48,98.17,21.7Z"/><path class="cls-1" d="M52.34,143.53c.9.05,1.68.24,1.58,1.42A1.81,1.81,0,0,1,52.34,143.53Z"/><path class="cls-2" d="M151.31,41.6l-1-.81C150.88,40.77,151.36,40.85,151.31,41.6Z"/><path class="cls-2" d="M61.21,48.1c3.36,2.94,5.24,2.76,7,0,2.36-3.64,3.66-3.38,5.77.9,1.86-.4,1.12-2.15,1.58-3.22,1.22-2.84.13-3.36-2.43-2.13-.83.4-1.92,1.27-2.6.06s.13-2.2,1.26-2.81c.44-.23,1-.32,1.41-.51,2.52-1,2.21-6.08,4.82-5.15,1.9.67,3.4,3,6.15,3.72,3.5,1,1.84,5.57,4.06,8.39,1.22-2.4,1.54-5,2.82-7.14,1-1.75,2.8-2.22,3.65-1.38,3.82,3.8,9.22,6.48,8.57,13.5-.73,7.9-2.21,15.7-2.61,23.66-.2,4.14-.26,8.27-.44,12.41,0,.93.37,2.16-.82,2.63s-1.73-.67-2.48-1.26a3.87,3.87,0,0,1-.71-.69c-7.7-10-18.31-17-27-26.06A31.08,31.08,0,0,1,61.21,48.1Z"/><path class="cls-2" d="M20.66,44c-.48,2.85.63,6.08-3.36,7-1.57.34-1.29,2.26-.81,3.45.66,1.65,2.12,1.08,3.43.78,1.74-.39,3.5-2.92,5.25-.39s1.15,5.75,1.62,8.64c.18,1.1-1.45,1.05-2.41,1.07-2.16.06-4.33-.08-6.49.07-3.61.24-5.35-2-4.48-4.86,1.15-3.73-1-5.57-2.88-7.74-1-1.19-3.43-2.78-1.52-3.66,2.1-1,3.17-5.39,6.39-2.85C18.05,47.58,19.05,45.73,20.66,44Z"/><path class="cls-2" d="M41.11,8.64c0,1.18-.64,1.95-1.78,1.91a20.29,20.29,0,0,0-7.72,1.37c-.8.29-1.69.58-2.12-.38a1.94,1.94,0,0,1,.65-2.63c3.13-1.78,6.74-1.07,10.09-1.77C40.89,7,41.11,8,41.11,8.64Z"/><path class="cls-2" d="M184.44,193.35c.42.24,1.42.15,1,.88s-1,0-1.37-.45Z"/><path class="cls-2" d="M138.33,142.49l1.27.54c-.1.12-.26.36-.29.34-.4-.2-.77-.44-1.16-.67Z"/><path class="cls-2" d="M188.25,184.58l.41.51-.48-.43Z"/></g></g></svg>