<svg xmlns="http://www.w3.org/2000/svg" viewBox="0 0 130.398 109.765"><defs><style>.a{fill:#94ccd2;}.b{fill:none;stroke:#646086;stroke-linejoin:round;stroke-width:5px;}</style></defs><g transform="translate(-883.146 -684.584)"><path class="a" d="M-4030,17836.125l-8.969,11.725-16.739-11.725,15.523-20.684h28.271l10.606,16.055,5.507-3.777-6.342,25.141-24.095-7.045,5.234-3.471-14.062-23.359" transform="translate(4985.049 -17130.857)"/><path class="a" d="M25.709,20.683l-8.97,11.724L0,20.683,15.523,0H43.794L54.4,16.054l5.507-3.777-6.341,25.14L29.471,30.371,34.705,26.9,20.643,3.542" transform="translate(1013.544 733.895) rotate(118)"/><path class="a" d="M25.708,20.683l-8.97,11.724L0,20.683,15.523,0H43.794L54.4,16.054l5.507-3.777-6.341,25.14L29.471,30.371,34.705,26.9,20.643,3.542" transform="translate(931.597 785.396) rotate(-126)"/><path class="b" d="M-4030,17836.125l-8.969,11.725-16.739-11.725,15.523-20.684h28.271l10.606,16.055,5.507-3.777-6.342,25.141-24.095-7.045,5.234-3.471-14.062-23.359" transform="translate(4975.302 -17126.68)"/><path class="b" d="M25.709,20.683l-8.97,11.724L0,20.683,15.523,0H43.794L54.4,16.054l5.507-3.777-6.341,25.14L29.471,30.371,34.705,26.9,20.643,3.542" transform="translate(1003.798 738.072) rotate(118)"/><path class="b" d="M25.708,20.683l-8.97,11.724L0,20.683,15.523,0H43.794L54.4,16.054l5.507-3.777-6.341,25.14L29.471,30.371,34.705,26.9,20.643,3.542" transform="translate(921.851 789.574) rotate(-126)"/></g></svg>