<svg xmlns="http://www.w3.org/2000/svg" viewBox="0 0 92.589 88.018"><defs><style>.a{fill:#f2b597;}.b,.c{fill:none;stroke:#646086;stroke-width:5px;}.b{stroke-linejoin:round;}</style></defs><g transform="translate(-1096.35 -702.143)"><path class="a" d="M-3669.477,17948.758l21.439,30.117h41.719l21.824-30.117Z" transform="translate(4773.432 -17203.227)"/><path class="a" d="M-3589.751,17902.207l-3.421-8.207-9.171-2.98L-3609,17882c0-.025-9.468,1.26-9.468,1.26l-9.56-6-9.811,4.744h-9.273l-6.331,7.613-7.594,3.01-6.389,9.58Z" transform="translate(4775.017 -17164.914)"/><path class="b" d="M-3669.477,17948.758l21.439,30.117h41.719l21.824-30.117Z" transform="translate(4768.326 -17198.123)"/><path class="b" d="M-3623.345,18013.65l5.012,6.908h32.117l4.855-6.908Z" transform="translate(4743.605 -17232.898)"/><path class="b" d="M-3643.485,17961.506l9.766,15.279v-15.279Z" transform="translate(4757.183 -17204.027)"/><path class="b" d="M-3669.477,17930.014v8.361h81.976v-8.361Z" transform="translate(4769.595 -17187.613)"/><path class="b" d="M-3589.751,17902.207l-3.421-8.207-9.171-2.98L-3609,17882c0-.025-9.468,1.26-9.468,1.26l-9.56-6-9.811,4.744h-9.273l-6.331,7.613-7.594,3.01-6.389,9.58Z" transform="translate(4769.912 -17159.809)"/><path class="b" d="M-3531.014,17870.887l17.635-21.225,4.981,4.188-16.723,23.186" transform="translate(4694.126 -17145.02)"/><path class="c" d="M-3591.125,17899.613v3.434" transform="translate(4726.339 -17171.789)"/><path class="c" d="M-3591.125,17899.613v3.434" transform="translate(4719.841 -17165.754)"/><path class="c" d="M-3591.125,17899.613v3.434" transform="translate(4732.836 -17165.754)"/><path class="c" d="M-3591.125,17899.613v3.434" transform="translate(4745.832 -17165.754)"/><path class="c" d="M-3591.125,17899.613v3.434" transform="translate(4739.334 -17171.789)"/></g></svg>