<svg xmlns="http://www.w3.org/2000/svg" viewBox="0 0 120.376 114.934"><defs><style>.a{fill:#fcdd86;}.b,.c{fill:none;stroke:#646086;stroke-width:5px;}.b{stroke-linejoin:round;}</style></defs><g transform="translate(-1255.298 -857.313)"><path class="a" d="M-1209.176,18858.273l-3.57,2.691v25.828l2.841,4.27h11.7l4.515,26.221,11.49-7.35-1.537-18.871h17.173s43.383,24.078,43.479,24.285,8.858,0,8.858,0l-.748-81.738h-8.11s-26.533,24.934-53.468,25.453S-1209.176,18858.273-1209.176,18858.273Z" transform="translate(2485.049 -17976.297)"/><path class="b" d="M-1183.377,17873.457s2.956,44.527,10.971,44.746,14.116,0,14.116,0l2.453-3.969-6.083-9.152-1.578-31.625h-28.366l-2.8-2.293v-27.738l2.8-2.672h33.573l.118.93,3.815,29.953s39.743,13.143,49.425,26.477" transform="translate(2461.434 -16948.566)"/><path class="c" d="M-1116.379,17812.777s36.4-7.115,53.334-24.23" transform="translate(2419.484 -16920.59)"/><rect class="b" width="8.354" height="82.148" transform="translate(1356.19 867.703)"/><rect class="b" width="8.354" height="16.708" transform="translate(1257.798 899.264)"/><path class="c" d="M-984,17848.02s8.584,2.754,8.629,13.25-8.629,11.691-8.629,11.691" transform="translate(2348.544 -16952.461)"/></g></svg>