<svg xmlns="http://www.w3.org/2000/svg" viewBox="0 0 327.86 320.74"><defs><style>.cls-1{fill:#fff;}</style></defs><title>branchlogo</title><g id="Layer_2" data-name="Layer 2"><g id="Layer_1-2" data-name="Layer 1"><path class="cls-1" d="M86,97.44l-31.8-26.6-9.4-8a.78.78,0,0,0-1.1,0c-.5.4-.2.8.2,1.1l.7.6,40.5,34,.7.6a.57.57,0,0,1,.16.22c.31-.38.64-.76,1-1.14C86.69,98.1,86.43,97.84,86,97.44Z"/><path class="cls-1" d="M173.36,62.44l1.2-13.8,1.6-18.7,1.4-15.3.5-6.4c.1-.7-.3-.9-.8-.9s-.5.4-.5.8L176,17l-1.6,18.4-1.7,19.5-.6,7.2a2,2,0,0,1-.26.82l1.58.14A1.53,1.53,0,0,1,173.36,62.44Z"/><path class="cls-1" d="M155.76,62.34l-.2-2.3-1.9-21.9-2.4-26.5a24.33,24.33,0,0,0-.3-3.8c0-.5-.3-.6-.8-.6s-.5.3-.5.7a2.73,2.73,0,0,1,0,.7l1,10.9,1.6,19,1.4,15.2.7,8.5a3.72,3.72,0,0,1-.05.85L155.9,63A1.22,1.22,0,0,1,155.76,62.34Z"/><path class="cls-1" d="M146.86,63.34l-1.6-9.4-7.2-40.8-.6-3.5c0-.3-.2-.5-.7-.5s-.6.2-.6.7l.2,1c.8,5.4,1.8,10.6,2.8,15.9l4.8,27.5c.6,3.2,1,6.4,1.7,9.6a1.26,1.26,0,0,1,0,.43l1.51-.26A1.49,1.49,0,0,1,146.86,63.34Z"/><path class="cls-1" d="M138.26,65.34l-.2-.8-13.7-51-.2-1a.54.54,0,0,0-.1-.3.51.51,0,0,0-.7-.1c-.4.1-.7.2-.6.8l.2.8,7.8,28.8,6,22.8a3.93,3.93,0,0,1,.17.92l1.53-.41A1.09,1.09,0,0,1,138.26,65.34Z"/><path class="cls-1" d="M129.66,67.74l-.2-.7-15.3-42.1-2.9-8.1c-.2-.6-.4-.9-1-.6l-.12.05a.7.7,0,0,0-.28.95,2.28,2.28,0,0,1,.3.7l12.7,34.8,5.7,15.4a5.46,5.46,0,0,1,.23.74l1.2-.43A3.77,3.77,0,0,1,129.66,67.74Z"/><path class="cls-1" d="M113.86,75.14l-.4-.6L87.26,29a9.12,9.12,0,0,1-.6-1c-.2-.5-.5-.5-.9-.3a.65.65,0,0,0-.3,1l.4,1,13,22.5,13.7,23.4a5.91,5.91,0,0,1,.38.73l1.21-.69C114.07,75.55,114,75.38,113.86,75.14Z"/><path class="cls-1" d="M99,85.14l-.5-.6-34-40.3-.6-.7c-.2-.5-.6-.4-1-.1a.69.69,0,0,0-.17.17.6.6,0,0,0,.17.83l.7.8,34,40.6a2.93,2.93,0,0,1,.75.93c.41-.34.81-.69,1.23-1A5.76,5.76,0,0,1,99,85.14Z"/><path class="cls-1" d="M106.26,79.74l-.5-.8-30.1-43a6.68,6.68,0,0,1-.6-.8.68.68,0,0,0-1-.2c-.4.3-.5.5-.2,1a6.68,6.68,0,0,1,.6.8l30,43.1a10.63,10.63,0,0,0,.8,1.1,1.44,1.44,0,0,1,.16.29c.42-.31.86-.6,1.29-.9A2.9,2.9,0,0,1,106.26,79.74Z"/><path class="cls-1" d="M121.66,70.94c-.2-.3-.3-.4-.3-.7l-22.2-47.5a2.6,2.6,0,0,1-.4-1,.71.71,0,0,0-1-.3l-.14.07a.61.61,0,0,0-.16.83l.5,1,16.8,36c1.8,4.1,3.7,8.1,5.6,12,.19.44.33.71.4.92l1.3-.61A4.2,4.2,0,0,1,121.66,70.94Z"/><path class="cls-1" d="M80.26,104.44l-42.8-30-1.2-.8c-.4-.3-.7-.4-1,0s-.3.7.1,1a6,6,0,0,1,.9.7l31,21.6,12.7,9a2.44,2.44,0,0,1,.66.45c.28-.42.57-.83.86-1.25Z"/><path class="cls-1" d="M62.46,172.24l-2,.1c-7.3.8-14.5,1.4-21.8,2l-26.4,2.3-4,.4c-.6,0-.9.3-.8.8s.5.5.9.5L12,178l15-1.3,15.2-1.3,15.3-1.4,5.3-.4a.75.75,0,0,1,.61.09c-.06-.57-.11-1.15-.15-1.72A1,1,0,0,1,62.46,172.24Z"/><path class="cls-1" d="M65.66,189.64l-.8.2-47.8,12.8-4.4,1.2c-.5.1-.4.6-.3.9,0,.5.3.5.7.5l1-.3,50.8-13.6c1.2-.31,1.56-.59,1.82-.19-.18-.63-.35-1.27-.52-1.91C66.11,189.47,66,189.58,65.66,189.64Z"/><path class="cls-1" d="M64,180.94l-1.3.3c-4.7.8-9.4,1.5-14.2,2.5l-34.7,6-4,.8c-.4,0-.4.3-.4.7a.53.53,0,0,0,.6.6l1.2-.2,14.1-2.5,29.3-5.2,9.1-1.6c.52-.05.79-.07,1,0-.1-.52-.2-1.05-.29-1.57A.43.43,0,0,1,64,180.94Z"/><path class="cls-1" d="M137.16,261.84l-.2.7-13.6,50.9-.3,1.1c-.2.5.1.6.5.7s.6.2.8-.3l.2-.8,11.5-43,2.3-8.8a2.5,2.5,0,0,1,.44-1l-1.5-.4A1.61,1.61,0,0,1,137.16,261.84Z"/><path class="cls-1" d="M145.66,264.54l-2.8,16-5.8,32.7-.7,4a.72.72,0,0,0,0,.68.7.7,0,0,0,.94.32c.5-.2.5-.6.5-1l1.7-9.4,5.4-30.9,2.3-13c.05-.42.14-.65.32-.77l-1.75-.29C146,263.16,145.87,263.61,145.66,264.54Z"/><path class="cls-1" d="M282.86,264.18c.16.14.24.2.2.16Z"/><path class="cls-1" d="M182.16,63.54l.7-4,8-44.8.8-4.7c.2-.5,0-.8-.5-.8s-.8,0-.8.5l-.3,1.5-2.2,12.7-5.4,30.8-1.7,8.5a1.18,1.18,0,0,1-.2.8l1.57.27A4.5,4.5,0,0,1,182.16,63.54Z"/><path class="cls-1" d="M154.56,264.74l-.1,2.1-1.6,19-1.3,14.6-1.7,18.1a2.73,2.73,0,0,0,0,.7c0,.6.3.8.7.8s.7-.1.7-.6v-1l1.3-14.8,2-21.7,1.4-16.8c.06-.59.12-.83.37-.93-.62,0-1.24-.1-1.85-.15A1.69,1.69,0,0,1,154.56,264.74Z"/><path class="cls-1" d="M62.56,154.54l-14-1.3c-5.1-.3-10.2-.9-15.2-1.3L18,150.64l-9.4-.8c-.6-.1-.9-.2-1,.6s.4.6.8.8l12.5,1,14.7,1.3,18.8,1.6,7.8.7a2,2,0,0,1,1,.23c0-.55.09-1.11.14-1.66A1.33,1.33,0,0,1,62.56,154.54Z"/><path class="cls-1" d="M68.46,128.44l-.7-.4-49.5-18-1-.3c-.5-.2-.8-.2-1,.3s0,.9.6,1c.3.1.7.4,1,.4l43,15.7,7.2,2.6a2,2,0,0,1,.51.3c.2-.57.4-1.13.61-1.68A.63.63,0,0,1,68.46,128.44Z"/><path class="cls-1" d="M75.46,111.94l-45.2-26.2-1.4-.7c-.3-.3-.6-.5-1,.1s-.1.9.4,1.1a7.92,7.92,0,0,1,.9.5l45.5,26.4,1.27.73.72-1.25C76.43,112.61,76.12,112.38,75.46,111.94Z"/><path class="cls-1" d="M72.06,120.24l-.9-.4-32.2-15-16.5-7.7a.63.63,0,0,0-1,.2c-.2.6-.1.9.4,1l1,.5,47.4,22.1,1.2.5a1.09,1.09,0,0,1,.43.35c.23-.51.47-1,.71-1.53C72.46,120.36,72.3,120.36,72.06,120.24Z"/><path class="cls-1" d="M63.36,145.44l-14.1-2.5-29.2-5.2-9.8-1.7c-.5-.1-.8,0-.9.6s.1.8.7.8l1.2.3,14.1,2.5,31,5.5,7,1.2a3.66,3.66,0,0,1,.84.2q.14-.82.27-1.62A3.73,3.73,0,0,1,63.36,145.44Z"/><path class="cls-1" d="M66.06,136.94a4.52,4.52,0,0,0-.9-.2L17.86,124l-4.6-1.3c-.4-.1-.8-.2-1,.4s.2.9.7,1l.8.2,37.6,10.1,14,3.7a1.16,1.16,0,0,1,.65.33c.13-.5.26-1,.39-1.47A.5.5,0,0,1,66.06,136.94Z"/><path class="cls-1" d="M252.36,113.74l.7-.4L298.76,87a9.12,9.12,0,0,1,1-.6c.4-.3.4-.5.2-.9s-.5-.6-.9-.3l-1,.5-30.4,17.6-15.6,9c-.59.35-.86.49-1.09.37.28.48.56,1,.83,1.46A.94.94,0,0,1,252.36,113.74Z"/><path class="cls-1" d="M164.64,62.66a5.09,5.09,0,0,1-.08-1.52V9.44c0-1.2.1-2,1.4-2.6a3.5,3.5,0,0,0,1.4-4.6,3.9,3.9,0,0,0-4.1-2.2,3.7,3.7,0,0,0-3.2,3.7,3.5,3.5,0,0,0,2.3,3.5,1.1,1.1,0,0,1,.8,1.3v53.4a1,1,0,0,1-.12.71h1.6Z"/><path class="cls-1" d="M92.89,91.74a4.08,4.08,0,0,1-1-1l-37.1-37.1a10.06,10.06,0,0,1-.8-.8c-.4-.5-.7-.3-1,0s-.4.7,0,1l.9.9,34.7,34.6,3,3a1.47,1.47,0,0,1,.31.43Z"/><path class="cls-1" d="M263.36,138l50.8-13.7,1.3-.3a.63.63,0,0,0,.2-.8c-.1-.2-.2-.5-.5-.5l-1,.2-36.9,9.9-14.9,4c-1.1.2-1.1.2-1.4-.8l-1.5-4.9c-.4-1.1-.4-1.1.6-1.5l.7-.2,41-14.9,9.4-3.5c.5-.1.6-.3.5-.8-.3-.4-.4-.7-1-.4l-1,.3-43.8,16-6.5,2.4c-.49.2-.78.1-1.08-.46a99.59,99.59,0,0,1,3.62,11.77C261.68,138.46,261.8,138.41,263.36,138Z"/><path class="cls-1" d="M62.87,163.23c-.18.15-.55.11-1.41.11H9.06a1.8,1.8,0,0,1-2-1.1,3.61,3.61,0,0,0-4.6-1.7,3.9,3.9,0,0,0-2.4,4.3,3.69,3.69,0,0,0,3.9,3,3.5,3.5,0,0,0,3.3-2.3,1.16,1.16,0,0,1,1.2-.8h53.9a.85.85,0,0,1,.52.15c0-.44,0-.88,0-1.32C62.86,163.46,62.87,163.35,62.87,163.23Z"/><path class="cls-1" d="M235.89,93a5.13,5.13,0,0,1,.67-.73l.2-.2L274,54.74a11.42,11.42,0,0,1,.9-.8.56.56,0,0,0,0-.9c-.3-.3-.6-.5-.9-.1l-1,1-37.1,37-.7.8a1.68,1.68,0,0,1-.29.2C235.22,92.28,235.56,92.62,235.89,93Z"/><path class="cls-1" d="M324.86,160.24a3.7,3.7,0,0,0-4.3,2,1.28,1.28,0,0,1-1.4,1h-53.4c-.8,0-.9-.4-.9-1a52.05,52.05,0,0,0-.2-5.3c-.1-1.1-.1-1.2,1-1.3h1l11.7-1,18.4-1.7,18.4-1.6,4.6-.4a.74.74,0,0,0,.43-.12.71.71,0,0,0,.17-1c-.3-.4-.6-.2-1-.2l-16.2,1.4-15.2,1.4-15.3,1.3-7.3.7c-.4.1-1,.1-1-.5l-.8-6.2c0-.4.1-.7.5-.7l1-.2,14.1-2.5,29.2-5.1,9.6-1.7c.5-.1.7-.2.7-.8-.2-.5-.4-.7-1-.6l-4.1.8-27.5,4.7-21.7,4c-1.1.1-1.1.1-1.4-1l-.21-.91a101.41,101.41,0,0,1-2.56,49.78l.67-2.17c.2-.6.5-.8,1-.6a3.91,3.91,0,0,0,.9.2l44.3,12,7.6,2a.69.69,0,0,0,1-.5c.2-.6-.1-.8-.6-.8a3,3,0,0,1-.6-.2l-35.4-9.5-16.3-4.4c-1.2-.3-1.2-.3-.9-1.5l1.1-4.4c.3-1.6.3-1.6,2-1.3l20.8,3.7,31,5.5,1.2.1c.4.1.6-.1.7-.5s0-.7-.4-.7a2,2,0,0,0-1-.2l-14-2.5-29.3-5.2-9.6-1.6c-.5-.2-.9-.3-.7-1l.7-5.8a.45.45,0,0,1,0-.11.7.7,0,0,1,.79-.59l3.7.3,14.9,1.3,18.4,1.7,15.8,1.4,1.9.1H320a.6.6,0,0,0,.49-.69c0-.4-.1-.6-.4-.7a3.08,3.08,0,0,0-.8-.1l-11.1-1-14.7-1.2-15.2-1.4-12.7-1.2c-1-.1-1-.1-1-1.1l.2-4.3c.1-2.3-.4-2,2.1-2h52.4c.6,0,1.1.1,1.3.8,0,.2.1.3.3.5a3.69,3.69,0,0,0,4.3,1.6,3.91,3.91,0,0,0,2.7-3.6A3.8,3.8,0,0,0,324.86,160.24Z"/><polygon class="cls-1" points="128.16 258.84 128.16 258.84 128.16 258.84 128.16 258.84"/><path class="cls-1" d="M163.78,264.49h-.64c.35.13.32.5.32,1.76V320a.71.71,0,0,0,.8.7c.4,0,.6-.2.6-.7v-54.7c-.1-.6.2-.8.9-.8l5.4-.2c1.1-.1,1.1-.1,1.2,1l.7,7.5,1.6,18.3,1.7,19.2.8,8.8c.1.6,0,1.1.8,1,.6-.1.6-.4.5-.9l-.5-6.3-1.7-19c-.3-5-.9-10.2-1.3-15.2l-1.3-13.8c0-.8,0-.9,1-1l5.1-.6c1.2-.1,1.2-.1,1.4,1.1l8.7,49,.7,4.4c.1.5.4.5.8.5.8-.1.5-.6.5-1.1l-2.4-14-5.2-29-1.8-10.3c-.2-1-.1-1,1-1.2l4.3-1c1.7-.4,1.7-.4,2.2,1.4l13.7,50.8.3,1.2a.58.58,0,0,0,.8.3c.3-.1.5-.1.5-.6a6.86,6.86,0,0,0-.2-1.1l-9.9-36.8-4-15c-.2-.7-.1-1,.7-1.2l5.3-1.7c.5-.2.9-.2,1.1.5l.2.7,15.4,42.2,3.3,9c1.3-.3,1.3-.3,1-1.3l-.4-1-18-49.4c-.4-1.5-.4-1.5,1-2l1.6-.7,3.8-1.6.7,1.4,22.3,47.7.5,1.2c.2.5.4.4.8.3s.7-.3.4-.8a6,6,0,0,1-.4-.9l-14.7-31.6L208,256c-.5-1.3-.7-1.1.7-1.8l3.8-2c1.7-.9,1.4-1.1,2.4.7l26.2,45.5a10.18,10.18,0,0,1,.6,1c.2.5.5.6,1,.3s.6-.5.2-1a4.4,4.4,0,0,1-.5-.9l-26.3-45.5a7.77,7.77,0,0,0-.5-1c-.3-.5-.2-.7.3-1l4.1-2.6c1.5-1,1.5-1,2.5.4l30.2,43.2a8.8,8.8,0,0,1,.6.9c.3.4.6.5,1,.2s.5-.7.2-1.1a7,7,0,0,1-.6-.9c-10.2-14.3-20.2-28.6-30.2-43l-1-1.5,4.5-3.5c1.3-1,1.3-1,2.3.2l34,40.5.7.9c.4.5.7.2,1,0s.2-.6,0-.9l-.6-.7L238,250.84l-7.8-9.4c-.7-.8-.7-.8.1-1.6l3.8-3.5c.8-.7.8-.7,1.6,0l.7.7,37,37c.28.26.55.52.8.8s.6.4,1,0,.4-.7,0-1l-.9-.8-37.1-37.2c-.25-.31-.52-.61-.8-.9a.47.47,0,0,1-.1-.1.5.5,0,0,1,.1-.7l4.6-5,7.5,6.2,34.4,28.84c-2.63-2.31-30.3-27.14-30.3-27.14l-9.8-8.2c-1-.7-.9-.7-.2-1.7l3.1-4.1c.6-.9.6-.9,1.5-.3l10,7,34,23.9c1.2.7,1.2.7,1.8-.4a7,7,0,0,0-1.3-1l-25.1-17.6-18.4-12.8c-1.4-1-1.1-.9-.4-2,.8-1.3,1.7-2.6,2.4-4,.9-1.4.8-1.2,2-.4l.3.1,45.5,26.3,1,.6c.5.3.7.1,1-.2.2-.5.1-.7-.3-1a6.62,6.62,0,0,1-.9-.5l-29-16.6-17.2-10c-1-.6-1-.6-.4-1.6l2.3-4.4c.7-1.3.5-1.2,1.7-.6l.7.3,47.6,22.2,1,.5c.4.1.6-.2.8-.5a.58.58,0,0,0-.3-.8l-1-.5-30.7-14.3-17.6-8.2c-1.1-.5-1-.5-.6-1.6a29.48,29.48,0,0,0,1.7-4.1c.8-1.9.5-1.7,2.5-1l49.4,18,1,.4c.5.1.6-.1.8-.5a.5.5,0,0,0-.3-.8l-1-.4-41.3-15-9-3.3c-.5-.1-1-.3-.7-1.1l1-3.21A101,101,0,0,1,163.78,264.49Z"/><path class="cls-1" d="M68.81,197.76a1.21,1.21,0,0,0,0,.18l-1.6.6-49.5,18a7.24,7.24,0,0,1-1.1.4c-.4.1-.4.4-.4.8.2.5.4.7.9.5l1-.4,29.3-10.7,20.7-7.5c1.1-.4,1.1-.6,1.6.7l1.7,4.2c.7,1.8,1,1.4-.8,2.2l-44.3,20.7-4.2,1.9c-.5.2-.9.3-.6,1s.7.5,1.2.3l.7-.3,31.8-14.8,16.5-7.7c1-.5,1-.5,1.5.5l2.1,4.2c.9,1.6,1.1,1.3-.6,2.2L28.86,241a9.12,9.12,0,0,1-1,.6.68.68,0,0,0-.1,1c.3.5.6.4.9.2l.8-.5L75.16,216a2.66,2.66,0,0,1,1-.6.51.51,0,0,1,.23-.15.6.6,0,0,1,.77.35l3.5,5.7-45.8,32.2c.5,1.2.7,1.2,1.5.6a2.25,2.25,0,0,0,.6-.3c14.3-10.2,28.7-20.2,43-30.2l1-.7c.4-.3.7-.3,1,.2l2,2.7,2,2.6-.7.7-35,29.3-6.8,5.7c-.3.3-.5.6-.1,1s.6.5.9.1a8.17,8.17,0,0,1,.7-.6l40.7-34.1.6-.6c.4-.3.7-.3,1,0l4.5,5-1.2,1.3-37.2,37.2-.7.8c-.4.3-.6.5-.1,1s.7.4,1.1,0l.7-.8,37.2-37.1a12.62,12.62,0,0,0,1-1.5l5.6,5.2-1,1.3-34,40.5a9.81,9.81,0,0,1-.6.8c-.4.4-.2.6,0,.9.4.3.7.4,1,0l.5-.5,26-31,8.5-10.2c.8-.9.8-.9,1.6-.2l4.3,3.3c.5.3.7.7.2,1.1l-.5.8-30.1,43.1a5.18,5.18,0,0,0-1,1.5,1.5,1.5,0,0,0,.9.7,4.81,4.81,0,0,0,1-1.2l27.7-39.7,3-4.2c.4-.7.8-.7,1.4-.3l4.4,2.8c1.1.7,1.1.7.5,1.7a.36.36,0,0,0-.2.3l-26.4,45.7-.7,1c-.2.5-.1.7.3,1s.7.2,1-.3a6.67,6.67,0,0,1,.5-.8l19-33,7.6-13.2c.7-1,.7-1,1.7-.5l4.1,2.2c1.7.8,1.4.6.7,2.2l-17.7,38.1-5,10.7c-.3.4-.3.7.2,1s.8,0,1-.3l.4-1,22.3-47.7.5-1c.1-.4.3-.6.7-.4l6.2,2.6h0c0,.6-.2,1,.3.8L112.66,303l-2.6,7.2c-.2.5-.3.9.3,1s.8,0,1-.4l.3-.9,13.6-37.3,4.7-13a2,2,0,0,1,.41-.82A101.18,101.18,0,0,1,68.81,197.76Z"/><path class="cls-1" d="M223.06,80.44,252,39.14l1.9-2.7c.4-.5.4-.7,0-1s-.7-.3-1,.1a5.43,5.43,0,0,1-.7,1L228.66,70l-7.1,10.2a1.81,1.81,0,0,1-.34.34l1.23.86C222.56,81.22,222.75,80.93,223.06,80.44Z"/><path class="cls-1" d="M191.06,64.94l13.6-50.8a9.76,9.76,0,0,0,.4-1.3.66.66,0,0,0-.7-.6.43.43,0,0,0-.16-.05.39.39,0,0,0-.44.35,2,2,0,0,0-.3,1.1l-8.7,32.3L189.66,65a5.91,5.91,0,0,1-.31.87l1.37.38Z"/><path class="cls-1" d="M207.66,71.34l17.1-36.5c1.9-4.1,3.6-8.2,5.6-12.2.2-.4.4-.8-.2-1.1s-.9,0-1.1.5a2.9,2.9,0,0,1-.3.7l-16.3,35-6.1,13.5a6,6,0,0,1-.32.66c.38.17.77.35,1.15.54Z"/><path class="cls-1" d="M215.56,75.54,242,29.84c.1-.2.4-.5.4-.8.3-.4.5-.7-.1-1-.7-.5-.8-.1-1.1.4l-.4.6c-4.2,7.5-8.5,14.9-12.8,22.2l-13.8,24a5.37,5.37,0,0,1-.38.64l1.17.68C215.05,76.34,215.25,76,215.56,75.54Z"/><path class="cls-1" d="M199.36,68.54l.3-.8,14.4-39.6,4.1-11.3c-1.2-.7-1.2-.7-1.6.3l-.2.5-13.1,36-5,13.8a6.28,6.28,0,0,1-.41,1.1l1.37.51A1.46,1.46,0,0,1,199.36,68.54Z"/><path class="cls-1" d="M248.46,105.74l42.9-30.1a7.82,7.82,0,0,1,.9-.6c.3-.2.7-.5.3-1.1s-.8-.3-1.2,0l-.7.5L261.36,95l-14.3,10a2.67,2.67,0,0,1-.77.4l1.06,1.53C247.29,106.59,247.61,106.35,248.46,105.74Z"/><path class="cls-1" d="M229.56,86.64a5.9,5.9,0,0,0,.5-.7l33.7-40.1a5.8,5.8,0,0,0,1-1.2c.4-.4.3-.6,0-.9s-.7-.4-1,0l-.6.7-24.1,28.8-10.3,12.2a4.22,4.22,0,0,1-.45.53l1.07.9A1.62,1.62,0,0,1,229.56,86.64Z"/><path class="cls-1" d="M255.86,122.14a4,4,0,0,1,1.4-.8l46.4-21.7,2.3-1a.6.6,0,0,0,.4-1c-.2-.4-.5-.6-.9-.4a5.49,5.49,0,0,1-1,.5l-34.9,16.2-13.5,6.3a2.22,2.22,0,0,1-1,.32c.36.75.7,1.51,1,2.27Z"/><path class="cls-1" d="M242.36,99.14l.5-.4,39.8-33.6,1.4-1a.7.7,0,0,0,.19-.15.6.6,0,0,0-.09-.85c-.4-.4-.7-.5-1-.2a6.85,6.85,0,0,1-.7.5l-22.6,19-18.2,15.3a5.38,5.38,0,0,1-.81.67c.34.4.68.8,1,1.21A4,4,0,0,1,242.36,99.14Z"/><path class="cls-1" d="M276.56,275.54a2,2,0,0,0-2,2v.21a1.89,1.89,0,0,0,2,1.79,2,2,0,0,0,0-4Z"/><circle class="cls-1" cx="50.26" cy="51.14" r="2"/><path class="cls-1" d="M276.56,53a2,2,0,1,0-1.9-2,1.71,1.71,0,0,0,0,.32A1.8,1.8,0,0,0,276.56,53Z"/><circle class="cls-1" cx="50.26" cy="277.54" r="2"/></g></g></svg>