<svg xmlns="http://www.w3.org/2000/svg" viewBox="0 0 272.85 314.41"><defs><style>.cls-1{fill:#e25b86;}</style></defs><title>brancherouge</title><g id="Layer_2" data-name="Layer 2"><g id="Layer_1-2" data-name="Layer 1"><path class="cls-1" d="M91.76,56c1.69-1.28,1.4-2.58,1.31-3.64-.75-9,4.34-14.66,11.12-19.25,4.57-3.09,8.7-2.71,12.71,1.06C125.91,42.64,129,53,126.26,65c-1.77,7.79-3.83,15.51-5.68,23.29a17.23,17.23,0,0,0,1.56,12.08,188.56,188.56,0,0,1,13.76,37.47c1.19-10.62,2.22-20.18,3.36-29.74,1-8.74,3.42-16.89,9.79-23.52,4.61-4.79,10.57-6.23,16.79-3.4,6.51,3,10,9.05,9,15.68-1.65,11.84-5.63,22.88-11,33.55-4.54,9.08-8.59,18.4-13,27.56a9.43,9.43,0,0,0,.21,9.51c10.34,17.34,20.9,34.48,38.47,45.76,2.18,1.4,4,3.39,6.32,4.87-2.59-7.33-5.43-14.5-9.5-21.07a40.53,40.53,0,0,1-4.95-32.2c1.61-6.4,5.82-11.73,12.9-13.33,6.49-1.47,12,.29,16.7,5.34a25.31,25.31,0,0,1,6.49,14.22c2.1,14.35-.52,28.61-.34,42.92.2,15.42-.05,15.47,14.23,20.87,3.89,1.47,7.89,2.64,11.88,3.82,1.21.35,2.76,1.31,3.77.22,1.23-1.33,0-2.85-.66-4.11-2.75-5.71-5.49-11.42-8.48-17a70,70,0,0,1-7.58-24.19,17.63,17.63,0,0,1,8.93-17.17c5.67-3,14.88-1.16,20.19,3,11.59,9.12,12.44,21.85,13.26,35.05.51,8.34-2.24,13.91-8.89,18.85a182.74,182.74,0,0,0-20.07,18c-3.44,3.45-6.69,4.17-10.56,1.79-8.6-5.32-18.3-6.8-28-8.64-15.08-2.86-12.55-2.66-20.77,8.72-11.74,16.27-24.25,31.57-40,44.11-9.39,7.48-26.08,3.92-31.53-6.65-2.71-5.26-1.13-9.84,1.69-14.07,4.85-7.26,10.72-13.59,18.6-17.74a228.84,228.84,0,0,0,26-16c-7.64.87-14.75,1.66-21.86,2.49-4.78.55-9.62,1.9-14.34,1.56-6.86-.51-10.74,3.12-14.57,7.8-8.21,10-14.55,21.61-24.57,30.12a166.08,166.08,0,0,1-15,11.63c-7.62,5.1-14.62,3.92-20.58-2.61a11.1,11.1,0,0,1-2.74-10.61A34.69,34.69,0,0,1,52.76,268c8.11-9.6,16.77-18.51,29-23,.74-.27,1.42-.7,2.76-1.37-4.83-3.3-10-2.68-14.69-3.41-20-3.09-39.68-7.31-57.48-17.37C3.67,218-1,210.37.17,200.07c.59-5.43,6.49-11.33,12.46-13,10.47-2.87,19.47.37,27.55,6.71A152.43,152.43,0,0,1,57,208.63c4.75,5,8.13,11.24,12.56,16.67,5.72,7,12.76,6.19,20.27,6.08-10-7.94-17.85-17.87-26.57-26.91-4.28-4.45-5.35-13-2.76-18.27a16.6,16.6,0,0,1,16-9.16c5.55.44,9.88,3.13,14,6.85,13.74,12.29,19,28.88,23.92,45.69,1,3.42,2.55,5,6.38,4.52,18.16-2.09,36.36-4,54.55-5.87,3.75-.38,7.55-.37,12.35-.59-4.15-5.39-9.65-7.68-14.07-11.21a98.34,98.34,0,0,1-21.93-24.28c-3.55-5.61-7.26-11.13-10.88-16.7a7.17,7.17,0,0,0-5.82-3.32c-13.92-1.29-27.88-1.14-41.83-1.41-10.45-.21-19.28-4.51-24.73-13.6-5.6-9.33,3.4-24.07,15.16-26.05,8.9-1.5,17-.82,24.6,4.87,5.48,4.09,11.83,7,18.12,10.68,0-1.13.17-1.7,0-2.06-6.22-11.22-10.12-23.51-16-34.92-1.49-2.9-3.67-3.89-6.66-4.46-12.42-2.35-25.19-1.64-37.57-4.85-9.19-2.39-14.93-8.6-20-15.54C42.51,79.85,48.47,70.67,56,69.35c6.44-1.12,13-.89,19.07,2.1,5.67,2.79,11.3,5.65,17.78,8.9C90.08,74.66,85.3,71.56,82.57,67,76.12,56.23,64.49,55.47,54.26,52.2c-11.15-3.56-22.06-7.53-32-13.75a29.67,29.67,0,0,1-10.76-12.2c-2.64-5.33-3-11.44.78-16.16,4.69-5.85,10.31-10.78,19-10,9,.8,16,5.46,22.49,11,11.06,9.43,20.74,20.08,28,32.93C84.22,48.46,88.38,52,91.76,56Z"/><path class="cls-1" d="M164.11,302.24c-.2-3.12,1-6.29,3.67-9.25,11.51-12.79,26.48-17.13,42.93-18,1.42-.08,3.4-.72,4.14.78.83,1.7-1.19,2.53-2.21,3.45-11.68,10.67-23.36,21.33-35.19,31.83-1.89,1.67-3.55,4.69-7.21,2.72s-6.35-4.29-6.14-8.81C164.14,304.3,164.11,303.63,164.11,302.24Z"/></g></g></svg>