<svg xmlns="http://www.w3.org/2000/svg" viewBox="0 0 201.84 201.84"><defs><style>.cls-1{fill:#fff;}</style></defs><title>circleonlylogo</title><g id="Layer_2" data-name="Layer 2"><g id="Layer_1-2" data-name="Layer 1"><path class="cls-1" d="M199.89,81.09l-.79-3.49c0-.15,0-.27-.07-.39a99.13,99.13,0,0,0-3.61-11.78l0,0-2.12-5.22c-.34-.76-.69-1.52-1-2.27-.24,0-.37-.26-.64-.81a50.63,50.63,0,0,0-2.4-4.6c-.25-.37-.38-.7-.26-1q-.41-.73-.84-1.47c-.16-.08-.3-.29-.5-.66l-2.5-4a3.35,3.35,0,0,1-.61-1.08c-.35-.51-.7-1-1.06-1.52-.34.09-.43-.17-.83-.7L179.3,38c-.42-.56-.54-.73-.3-1l-1-1.21c-.36.18-.57-.08-1.28-.86l-3-3.3c-.66-.73-.88-.93-.67-1.28-.34-.34-.67-.69-1-1-.28.16-.54.18-.91-.19l-4.4-4c-.32-.32-.38-.58-.19-.87l-1.06-.9c-.32.31-.5.18-1.15-.33l-3.7-2.8c-1-.84-1.26-.91-1-1.4l-1.23-.86c-.33.27-.63.24-1.16-.14-1.2-.9-2.6-1.7-4-2.6-1-.69-1.35-.77-1.12-1.28l-1.16-.68c-.3.41-.51.3-1.32-.14l-1.8-1c-1.2-.7-2.4-1.2-3.6-2l.13-.31-1.16-.54c-.24.41-.44.31-1.17-.05l-5-2c-.5-.22-.69-.44-.65-.8L135,5.9c-.28.49-.57.18-1.69-.1l-4.4-1.4a2.14,2.14,0,0,1-1.1-.5l.06-.26-1.38-.37c-.2.37-.44.3-1.18,0l-5-1c-.74-.2-1-.28-1-.63-.52-.1-1-.19-1.57-.27a.9.9,0,0,1-.8.2L111.2.8c-.41,0-.6-.12-.68-.34L108.94.32c-.14.17-.39.18-.94.18L103.5.3c-1.17,0-1.58,0-1.73-.29h-1.59A1,1,0,0,1,99.3.3a50.68,50.68,0,0,0-5.5.3A.68.68,0,0,1,93,.31L91.45.45c-.09.32-.32.38-1,.45l-5.3.7a.89.89,0,0,1-.88-.23l-1.51.25c-.06.36-.3.58-.81.58L76.6,3.4c-.48.13-.8.07-1-.2l-1.53.42c0,.33-.28.43-1,.68L68.2,5.8c-.65.19-.88.25-1.07,0l-1.2.44c.07.39-.14.48-.83.76L60.3,9c-.65.19-.88.25-1.1,0l-1.31.61c.16.45-.06.54-1.09,1.09l-4.3,2.2c-.77.46-1,.56-1.21.14-.41.22-.81.46-1.21.69.15.38,0,.48-.78,1L45,17.4c-.68.4-.9.53-1.16.29l-1.28.89c.13.34-.07.6-.46.92Q40,21.06,37.9,22.7c-.71.49-.87.68-1.23.39l-1.23,1a2.4,2.4,0,0,1,.16.27l-5.3,4.9c-.1-.06-.18-.14-.27-.2l-1,1c.13.28,0,.53-.3.87l-3.4,3.7c-.77.83-.93,1.08-1.28.87-.32.38-.65.76-1,1.15a.52.52,0,0,1-.05.48q-2.13,2.69-4.2,5.4l-.18-.1-.87,1.25c.15.2,0,.44-.35,1l-2.6,4c-.56.84-.72,1.19-1,1.18l-.72,1.24.13.08c-1.2,2-2.2,4-3.2,6a.88.88,0,0,1-.26.32c-.24.51-.48,1-.71,1.53a.57.57,0,0,1,0,.65L6.6,65.3a1.18,1.18,0,0,1-.28.41c-.21.56-.41,1.12-.61,1.68A.53.53,0,0,1,5.8,68L3.9,73.9c-.07.26-.18.42-.36.45-.13.49-.27,1-.39,1.47.17.21.17.5.05,1l-1,5c-.18.71-.26,1-.59,1.07-.1.54-.18,1.08-.27,1.62.33.15.29.42.16,1.21L.8,90.9c-.06.49-.18.74-.38.87,0,.55-.1,1.1-.14,1.66.21.17.22.49.22,1.17L.2,99.1c-.06.94,0,1.33-.2,1.49v.33c0,.44,0,.88,0,1.32a.75.75,0,0,1,.28.66l.3,5.7a1,1,0,0,1-.25.76c.05.58.1,1.15.16,1.72a.8.8,0,0,1,.29.52l.7,6a.63.63,0,0,1,0,.55c.09.53.19,1,.29,1.57.18.11.23.35.34.88L3.3,126a1.63,1.63,0,0,1,0,.59c.17.64.34,1.28.52,1.91A7.62,7.62,0,0,1,4.3,130l.6,1.8a34.39,34.39,0,0,1,1,3.31,101.16,101.16,0,0,0,61.56,61.06c.17-.14.42,0,1,.13l5,1.5c.6.21.86.32.94.52l1.5.41c.2-.18.49-.14,1.16,0l4.1.9c1,.24,1.45.37,1.67.63.58.11,1.16.2,1.75.3a1.42,1.42,0,0,1,.78-.13l5.5.7c.42,0,.62.11.71.31l1.86.16a2.44,2.44,0,0,1,.83-.07l4.4.2a10.77,10.77,0,0,1,1.58.14h.64A101,101,0,0,0,197.29,131l0-.11a101.74,101.74,0,0,0,2.56-49.78ZM62.7,121.6c1.3,0,1.3,0,1.3,1.1-.1,2.9.3,2.4-2.4,2.4H55c-.6.1-1-.1-1-.8.1-3.3-.5-2.7,2.5-2.7ZM46.6,66.9a4,4,0,0,1,3.4-3,21.45,21.45,0,0,1,6.3,0,4,4,0,0,1,3.3,3,7.42,7.42,0,0,1,.3,2.3V95c0,1.2,0,1.2-1.4,1.2h-2c-.8.1-1-.2-1-1V86c0-1.6.2-1.6-1.6-1.6H52.4c-1.9,0-1.9-.2-1.9,1.8v8c0,2.1,0,2.1-2,2.1-2.2,0-2.2,0-2.2-2.2V69.8A8.85,8.85,0,0,1,46.6,66.9ZM29.7,85.6v9c0,1.9.2,1.7-1.7,1.7H26.1c-.5,0-.7-.2-.7-.7V80.2h.1V64.7c0-.5.2-.8.8-.8,2.7,0,5.4-.2,8.2,0a4.2,4.2,0,0,1,4.1,4,14.23,14.23,0,0,1,0,1.6V79.8c-.2,3-1.9,4.7-5,4.8H30.7C29.7,84.6,29.7,84.6,29.7,85.6Zm16.2,70.1L44,157.5c-.2.2-.4.5-.8.2s-.5-.5-.3-.8a1.21,1.21,0,0,0,.2-1.4,7.93,7.93,0,0,0-1.4-1.7c-.3-.3-.5-.1-.8.1l-2,1.7c-1,1-1.1,1.4-.3,2.6.2.3.9.6.4,1s-.8-.2-1-.5a73.82,73.82,0,0,1-4.8-5.8c0-.2-.3-.4,0-.7s.5,0,.7.2c1.4,1.3,1.5,1.3,3,.1l5.3-4.1c1-.8,1-1,.5-2.2a3.07,3.07,0,0,1-.2-.5.29.29,0,0,1,.1-.4c.1,0,.3-.2.5,0a5.9,5.9,0,0,1,.5.7,73,73,0,0,0,6.8,7.7c.8.9.8.7,0,1.7l-1,1c-.2.2-.4.5-.7.2a.69.69,0,0,1-.3-.8c.7-1.5.1-2.5-.8-3.5l-2-2.2-3,2.3a.5.5,0,0,0,0,.7,14.28,14.28,0,0,0,1.3,1.4,1,1,0,0,0,1.3.2.7.7,0,0,1,.9.1C46.5,155.3,46.1,155.5,45.9,155.7Zm18.4,11.9c-.1.3-.3.5-.6.4a.63.63,0,0,1-.5-.6c.5-2.1-.9-2.9-2.3-3.8-1.9-1.2-1.9-1.2-3.2.5l-.2.4c-.2.5-.8.8-.8,1.5a5.55,5.55,0,0,0,2.4,1.4,1,1,0,0,0,.8-.4.46.46,0,0,1,.17-.17.6.6,0,0,1,.83.17c.3.2.1.5,0,.8l-1.5,2.4c-.2.2-.4.4-.7.2s-.5-.3-.4-.6a1.11,1.11,0,0,0-.2-1.4,9.86,9.86,0,0,0-2-1.4c-.3-.2-.5.1-.6.3a13.79,13.79,0,0,0-1.7,2.5.64.64,0,0,0-.2.2,1,1,0,0,0,.2,1.4,11.19,11.19,0,0,0,4,2.4,3,3,0,0,0,2.5-.5,6.85,6.85,0,0,0,.7-.5c.3-.3.6,0,.8.1s.2.3.1.6l-1.6,2.6c-.2.4-.4.4-.7.2l-.8-.4a86.69,86.69,0,0,1-10.4-7.2l-.3-.3c-.3-.2-.8-.3-.4-.7s.6-.1.9,0c1.4.8,1.5.8,2.5-.4q2.13-2.69,4.2-5.4c1-1.2,1-1.2,0-2.6a1.24,1.24,0,0,0-.1-.2.3.3,0,0,1-.3-.3.29.29,0,0,1,.3-.3.41.41,0,0,1,.4,0,3.13,3.13,0,0,1,.5.4,78.36,78.36,0,0,0,8.8,6.1,3,3,0,0,1,.4.4Zm4-72.2V64.9c0-1.1,0-1.1,1.1-1.1h7a6.94,6.94,0,0,1,1.2.1,4,4,0,0,1,3.9,3.6,7.1,7.1,0,0,1,.1,1.6v8.6a7.5,7.5,0,0,1-.3,2.4,3.74,3.74,0,0,1-1.4,2.1,1.19,1.19,0,0,0-.5,1.6l2.3,10.4a17.32,17.32,0,0,1,.4,1.9,10.66,10.66,0,0,1-2.7.2c-1.4,0-1.4-.1-1.7-1.3l-1.8-8.5-.6-2.4c-.1-.7-.4-1-1.1-1h-.4c-1.4.1-1.4.1-1.4,1.2V95.2c0,1,0,1-1,1H69.1C68.5,96.3,68.2,96.1,68.3,95.4Zm12.1,77.2-.7,2.2a.51.51,0,0,1-.4.5h0a.6.6,0,0,1-.68-.5l-.4-1.2a3.79,3.79,0,0,0-3-2.6,1.49,1.49,0,0,0-1.8.7,1.59,1.59,0,0,0,.3,1.7,13.53,13.53,0,0,0,1.6,1.7,21.46,21.46,0,0,1,3,2.8c1.6,1.9,1,3.9-1.3,4.9s-5.4-.1-7.2-2.2l-.8-1.1h0a5.68,5.68,0,0,0-.6.5h0a.71.71,0,0,1-1,0c-.4-.3-.1-.6,0-.9l1-2.4a.63.63,0,0,1,.6-.5.8.8,0,0,1,.8.8,5.57,5.57,0,0,0,0,1,4.31,4.31,0,0,0,4,3.9,1.81,1.81,0,0,0,2-.8,1.5,1.5,0,0,0-.5-2l-2-1.9a10.06,10.06,0,0,1-2.4-2.8,3,3,0,0,1-.34-.86,2.9,2.9,0,0,1,2.24-3.44,5,5,0,0,1,5.5,1.7c.5.5.6,1,1.3.2C79.9,171.6,80.5,172.1,80.4,172.6ZM84,113.91a.52.52,0,0,1-.51.49h-3c-.6,0-.8-.4-.8-.9v-2.3c0-.8,0-1.6-1-1.9a3.46,3.46,0,0,0-2.8.2,1.38,1.38,0,0,0-.7,1.1,10.9,10.9,0,0,0,0,1.4v19a5.57,5.57,0,0,0,0,1c.1,1.3.6,1.8,1.8,1.8h1a1.69,1.69,0,0,0,1.8-1.6v-.3c.1-1.8.1-1.8,2-1.8,2.5,0,2.3-.5,2.2,2.4a13.18,13.18,0,0,1-.1,1.4,4.21,4.21,0,0,1-4.1,3.8,30.73,30.73,0,0,1-4.7,0,4.2,4.2,0,0,1-4.1-3.8,17.41,17.41,0,0,1-.2-2.6v-9.8h.1v-9.9a13.79,13.79,0,0,1,.2-2.8,4,4,0,0,1,3.9-3.5,23.22,23.22,0,0,1,5,0,4.1,4.1,0,0,1,4,3.6,33.39,33.39,0,0,1,0,4.9S84,113.87,84,113.91ZM146.2,68.7c.1-2.9,1.7-4.4,4.5-4.6a20.23,20.23,0,0,1,4.4,0,4.31,4.31,0,0,1,4,3.9,22.26,22.26,0,0,1,.2,4c0,.5-.1.8-.7.8h-.7c-.9-.1-2,.3-2.6-.2-.8-.6-.3-1.7-.3-2.6-.2-1.5-.7-2-2.4-2-1.5,0-2,.5-2,2v5.1a2.1,2.1,0,0,0,1.1,2l4.4,2.4c3,1.7,3.2,2.1,3.2,5.6v5.6c0,3.7-1.4,5.9-5.8,5.7h-2.8a4.39,4.39,0,0,1-4.2-3.7,10.15,10.15,0,0,1-.2-3.6c1.1-.5,2.3-.2,3.5-.3.5,0,.8.2.8.7v1.2c0,1.1.4,1.5,1.6,1.7h1.1a1.7,1.7,0,0,0,1.7-1.7V87.8a13.74,13.74,0,0,1,0-2.4,2.09,2.09,0,0,0-1.1-2L149.5,81l-1.3-.8a3.41,3.41,0,0,1-2-3.2Zm-32.7-4.9h5a14.23,14.23,0,0,1,1.6,0c3.3.3,5.1,2.1,5.3,5.5V91.6c-.2,2.9-1.6,4.5-4.5,4.7h-8.5c-.5,0-.7-.2-.7-.7V80.1h0V65.5C111.7,63.6,111.6,63.8,113.5,63.8ZM100.7,178.5c-.2,0-.5-.1-.5-.4l-.2-.4a2.29,2.29,0,0,0-2.2-1.8h-.6c-1.6-.1-1.6-.1-1.7,1.4l-.5,6.9c-.2,1.7-.1,1.8,1.5,2.2.3.1.6.1.6.5s-.4.4-.7.4c-2.3-.1-4.6-.5-6.8-.7-.3,0-.6-.1-.6-.5s.3-.4.6-.4c1.6-.1,1.8-.3,1.9-1.6l1-7.4c.1-1.3,0-1.3-1.2-1.5a6.64,6.64,0,0,1-1-.1l0,0a2,2,0,0,0-2.45,1.42c-.2.4-.3.7-.8.5s-.3-.6-.3-.9c.3-.8.1-1.8.7-2.3s1.6.1,2.4.1a85.56,85.56,0,0,0,9.6,1c1.9.1,1.8-.2,1.7,1.8a3.84,3.84,0,0,0,.2,1.3C101.2,178.3,101.1,178.5,100.7,178.5Zm-6.4-40.7H93.1c-1.1-.1-1.1-.1-1.1-1.3V106.4c0-1.1,0-1.1,1.1-1.1s2.3-.5,3,.3c.6.6.2,1.8.2,2.8v27.4C96.3,138,96.6,137.8,94.3,137.8Zm9-55.7v13c0,1.2,0,1.2-1.1,1.2s-2.3.5-3-.3c-.6-.6-.2-1.8-.2-2.8V85.5c0-1-.1-1-1.2-1H95.3c-1.3,0-1.3,0-1.3,1.3v8.8c-.1,2,.2,1.7-1.8,1.7-.8,0-1.7.2-2.3-.2s-.2-1.4-.2-2.2V70.4a18.66,18.66,0,0,1,.2-2.7A4,4,0,0,1,93.7,64a21.75,21.75,0,0,1,5.7,0,4,4,0,0,1,3.6,3.3,10.73,10.73,0,0,1,.3,2.4Zm11.8,104.3c-2.22.36-4.46.63-6.7.8l-.7.1c-.3,0-.5-.1-.5-.4s.1-.4.4-.5h.1c1.9-.6,1.9-.6,1.7-2.5l-.6-6.2c-.2-1.6-.2-1.6-1.8-2-.2-.1-.4-.1-.5-.4s.1-.4.4-.5l6.1-.7c.2-.1.5.1.5.4a.42.42,0,0,1-.3.4.94.94,0,0,0-.5.1c-1,.5-1.1.6-1,1.8l.8,5.5.3,2c.1,1.1.4,1.3,1.4,1.3l.8-.1a.51.51,0,0,1,.4.5C115.5,186.4,115.3,186.4,115.1,186.4Zm.7-77.5c-.5.6-1.6.3-2.5.3h-.7c-.6-.1-.8.2-.8.6v26.3c0,1.6.2,1.6-1.6,1.6h-2c-.5,0-.8-.2-.8-.7V123.4h.1v-13c0-1.3,0-1.3-1.3-1.3h-1.8c-1,0-1,0-1-1.2v-1.6c0-1,0-1,1-1H115c1,0,1,.1,1,1.1C116,107.2,116.3,108.3,115.8,108.9Zm17.6,59.9c-1.2.7-1.2,1.9-1.2,3a71.55,71.55,0,0,1-1.1,9.3,2.09,2.09,0,0,1,0,.5c-.3,1.5-.9,1.7-2.1.7a94.35,94.35,0,0,1-7-7c-.9-.9-1.6-1.9-3-1.6a.25.25,0,0,1-.12,0,.29.29,0,0,1-.28-.31.48.48,0,0,1,.3-.4c.57-.11,1.14-.24,1.7-.4a33.76,33.76,0,0,0,4.2-1.3c.3,0,.6-.1.7.2s-.1.5-.4.6c-1.3.8-1.3,1-.3,2q2.6,2.42,5.4,4.6h.1a41.41,41.41,0,0,0,.6-7.2c0-1-.3-1.1-1.3-1l-.5.1a.41.41,0,0,1-.5-.2.33.33,0,0,1-.08-.18.3.3,0,0,1,.28-.32l4.1-1.9a.39.39,0,0,1,.5.2Zm2.5-61.6-4.4,17.3a10.11,10.11,0,0,0-.3,2.8v9.2c0,1.2-.1,1.2-1.3,1.2h-2.1c-.8,0-1-.3-1-1v-9.4a13.13,13.13,0,0,0-.4-3l-4.6-17.9a1.47,1.47,0,0,1-.2-1v-.1a15.75,15.75,0,0,1,3.5,0c.7,0,.7.5.9,1l2,8.9,1,4a9.45,9.45,0,0,0,.8-2.8l2-10c.2-.8.5-1.1,1.4-1a25,25,0,0,1,3,0A3.49,3.49,0,0,1,135.9,107.2ZM138,95.5c.1.7-.3.8-.9.8-1.1-.1-2.5.5-3.2-.2s-.2-2-.2-3v-13h-.1V64.7c0-.7.3-.8.8-.8h2.8c.5-.1.8.1.8.6Zm1.6,28.7c-.2-2.7-.2-2.7,2.5-2.7h6.4c1,0,1,0,1,1-.1,3.2.5,2.6-2.5,2.6h-2.5l-3.9-.1C139.9,125.2,139.6,124.9,139.6,124.2Zm15.5,44.6a66.89,66.89,0,0,1-5.7,4.2c-.2.1-.4.2-.6,0-.3-.4-.1-.6.2-.7s.41-.39.6-.6a.62.62,0,0,0,.2-.6c-.2-.5-1.8-1.3-2.2-1l-3.9,2.4c-.7.6-.2,1.3-.2,1.9a.8.8,0,0,0,.9.6h0a8.25,8.25,0,0,1,1-.3h0a.4.4,0,0,1,.48.31,0,0,0,0,0,0,0,.31.31,0,0,1-.21.37l-4.3,2.5a.41.41,0,0,1-.5-.2.26.26,0,0,1-.09-.09.29.29,0,0,1,.09-.41c1.4-1,1.2-2.4,1.2-3.7-.2-2.8-.4-5.6-.8-8.4-.1-.6-.5-1.5.2-2s1.3.3,1.8.6c2.7,1.5,5.3,2.9,8,4.2,1.1.5,2.2,1.1,3.4.3a.3.3,0,0,1,.4,0C155.4,168.5,155.3,168.7,155.1,168.8ZM170,153.2l-2.8,3.5a78.28,78.28,0,0,1-6.1,6.7,5.9,5.9,0,0,0-.8.7.42.42,0,0,1-.5,0l-.05,0a.39.39,0,0,1-.05-.56c.5-.5,1.1-1,1-1.7s-.9-1.2-1.4-1.7l-4.2-4.3c-1.1-1.1-1.1-1.1-2.5-.3l-.3.2a.24.24,0,0,1-.12.07.29.29,0,0,1-.38-.17c-.2-.1,0-.3,0-.5l.3-.3c1.5-1.4,2.8-2.9,4.2-4.4.2-.2.4-.6.7-.3s.2.5,0,.8c-1,1.2-.6,1.6.4,2.5l4.8,4.5c1.2,1.1,1.7,1.1,2.8-.1a14.85,14.85,0,0,0,1.9-2.5,4.12,4.12,0,0,0,.7-2.2h0a1.9,1.9,0,0,0-.5-1.6c-.4-.5-.5-.9,0-1.3s.7.2,1.1.4a9.55,9.55,0,0,1,1.6,1.2C170.4,152.2,170.5,152.6,170,153.2Zm5.5-56.8h-6.9c-1.2,0-1.2-.1-1.2-1.3V64.9c0-.8.3-1,1-1h8.8c.7,0,1,.2,1,1,.1,3,.1,3-2.9,3h-2.8c-.5,0-.8.2-.8.8v8.2c0,.6.3.8.9.8h3.8c.7,0,1,.3,1,1,.1,3,.1,3-2.8,3h-2.2c-.6,0-.8.2-.8.8v9.1c0,.7.3,1,1,1h4.5c1.1,0,1.1,0,1.1,1C178.3,96.4,178.3,96.4,175.5,96.4Z"/><path class="cls-1" d="M116.1,91.1c0,1.2,0,1.2,1.3,1.2h1.4c1.9,0,2.2-.3,2.2-2.2V70.6a8,8,0,0,0,0-1.2,1.81,1.81,0,0,0-1.8-1.7h-2c-1.2,0-1.2.1-1.2,1.2v11a3.45,3.45,0,0,0,.1.9Z"/><path class="cls-1" d="M98.9,70.4c0-2.4-.5-2.8-3-2.7h-.1c-1.3,0-1.9.5-1.9,1.8v10c0,.7.3.8.9.8h3c1.2,0,1.2,0,1.2-1.1V74.5h-.1Z"/><path class="cls-1" d="M51.5,80.4a28.47,28.47,0,0,1,3.2,0c.7,0,.9-.3.9-1V70.2c0-2.1-.4-2.5-2.6-2.5h-.4c-1.4,0-2,.6-2,2v9.8C50.6,80.1,50.8,80.4,51.5,80.4Z"/><path class="cls-1" d="M73.4,79.5h2.2a1.71,1.71,0,0,0,1.7-1.4,8.34,8.34,0,0,0,0-1v-7a2.8,2.8,0,0,0-.1-1,1.59,1.59,0,0,0-1.6-1.3H73.8c-1.2,0-1.2,0-1.2,1.2v4.5h-.1v5.2C72.5,79.3,72.7,79.5,73.4,79.5Z"/><path class="cls-1" d="M34.2,78V70a5.34,5.34,0,0,0,0-.8.41.41,0,0,0,0-.11A1.49,1.49,0,0,0,32.6,67.7H31c-1.2.1-1.2.1-1.2,1.3v5.2l-.1-.1v4.3c.1,2.3-.4,2.1,2.1,2.1C33.8,80.5,34.2,80,34.2,78Z"/><path class="cls-1" d="M143.4,171.6a39.42,39.42,0,0,0,3.4-2.2l-4.1-2.4C143,168.7,142.9,170.2,143.4,171.6Z"/></g></g></svg>