<svg xmlns="http://www.w3.org/2000/svg" width="231.907" height="222.28" viewBox="0 0 231.907 222.28">
  <g id="Groupe_105" data-name="Groupe 105" transform="translate(-25.779 -30.593)">
    <path id="Rectangle_471" data-name="Rectangle 471" d="M31.858,0h87.578a31.98,31.98,0,0,1,31.98,31.98v0a13.026,13.026,0,0,1-13.026,13.026H13.148A13.148,13.148,0,0,1,0,31.858v0A31.858,31.858,0,0,1,31.858,0Z" transform="translate(86.414 53.896)" fill="#d1d0d0"/>
    <path id="Rectangle_472" data-name="Rectangle 472" d="M31.858,0h79.52a31.98,31.98,0,0,1,31.98,31.98v0a13.026,13.026,0,0,1-13.026,13.026H13.148A13.148,13.148,0,0,1,0,31.858v0A31.858,31.858,0,0,1,31.858,0Z" transform="translate(32.035 127.878)" fill="#d1d0d0"/>
    <path id="Rectangle_473" data-name="Rectangle 473" d="M17.608,0H70.492A17.608,17.608,0,0,1,88.1,17.608v0a8.807,8.807,0,0,1-8.807,8.807H8.807A8.807,8.807,0,0,1,0,17.608v0A17.608,17.608,0,0,1,17.608,0Z" transform="translate(162.122 40.688)" fill="#d1d0d0"/>
    <path id="Rectangle_474" data-name="Rectangle 474" d="M13.887,0H68.722A13.887,13.887,0,0,1,82.609,13.887v0a5.829,5.829,0,0,1-5.829,5.829H5.829A5.829,5.829,0,0,1,0,13.887v0A13.887,13.887,0,0,1,13.887,0Z" transform="translate(25.779 30.592)" fill="#d1d0d0"/>
    <path id="Tracé_709" data-name="Tracé 709" d="M64.475,227.749c-1.71-5.113,10.039-2.737,16.32-5.618,8.889-4.077,6.117-16.176,27.076-18.138,15.535-1.454,18.981-4.151,30.46-2.844,6.386.728,7.448,1.8,15.436,2.446,8.558.686,10.93-.263,21.8-.182,9.081.067,14,.1,20.565,1.274,11.428,2.036,16.939,5.559,23.344,3.34,2.672-.926,2.828-.074,4.1.564,1.322.662,1.661.289,2.678,2.4,2,4.16,10.461,9.317,10.769,10.681.528,2.342-27.56,6.059-75.028,9.173C129.129,233.005,68.837,240.793,64.475,227.749Z" fill="#144627"/>
    <path id="Tracé_710" data-name="Tracé 710" d="M145.76,215.442a5.459,5.459,0,0,1-5.459-5.459V140.47a5.459,5.459,0,0,1,10.918,0v69.513A5.459,5.459,0,0,1,145.76,215.442Z" fill="#67393b"/>
    <path id="Tracé_711" data-name="Tracé 711" d="M187.91,215.442a5.458,5.458,0,0,1-5.458-5.459V140.47a5.459,5.459,0,0,1,10.917,0v69.513A5.459,5.459,0,0,1,187.91,215.442Z" fill="#67393b"/>
    <path id="Tracé_712" data-name="Tracé 712" d="M54.915,238.312c-1.989-5.508,6.38-7.79,12.628-12.687,8.734-6.845,8.175-12.432,32.555-14.546,18.069-1.566,22.078-4.472,35.429-3.064,7.428.784,8.663,1.945,17.955,2.635,9.954.739,12.713-.283,25.354-.2,10.563.072,16.281.111,23.922,1.373,13.291,2.193,19.7,5.988,27.152,3.6,3.108-1,3.488-.4,4.968.287,1.537.714,1.733.632,2.916,2.912,2.325,4.481,12.177,13.049,12.534,14.519.614,2.523-32.065,3.513-87.278,6.868C124.824,242.333,59.989,252.363,54.915,238.312Z" fill="#f99254"/>
    <path id="Tracé_713" data-name="Tracé 713" d="M123.046,230.842a7.875,7.875,0,0,1-7.592-8.13V119.188a7.61,7.61,0,1,1,15.185,0V222.712A7.876,7.876,0,0,1,123.046,230.842Z" fill="#67393b"/>
    <path id="Tracé_714" data-name="Tracé 714" d="M121.209,164.969c-19.669-1.509-35.728-16.832-39.492-34.155C77.885,113.181,88.1,99.489,98.439,85.629c4.882-6.545,18.007-24.138,28.818-21.347,5.255,1.357,5.244,6.311,14.943,20.28,11.183,16.106,15.149,15.211,19.213,24.549,1.043,2.4,8.384,20.022-.712,36.29C152.63,159.839,135.6,166.074,121.209,164.969Z" fill="#144627"/>
    <path id="Tracé_715" data-name="Tracé 715" d="M218.217,230.842a7.392,7.392,0,0,1-7.109-7.647V125.826a7.128,7.128,0,1,1,14.218,0V223.2A7.392,7.392,0,0,1,218.217,230.842Z" fill="#67393b"/>
    <path id="Tracé_716" data-name="Tracé 716" d="M252.992,238.78c5.979-3.357-6.947-8.165-14.253-11.564-10.339-4.809-15.444-5.694-39.824-8.009-18.069-1.715-22.078-4.9-35.429-3.355-7.429.858-8.663,2.129-17.955,2.885-9.954.809-12.713-.31-25.354-.215-10.564.08-16.281.123-23.922,1.5-13.292,2.4-19.277,4.52-27.153,3.94a5.839,5.839,0,0,0-3.86.715c-1.537.781-2.394,2.336-5.062,4.447-4.259,3.37-12.122,9.937-12.479,11.546-.614,2.763,37.387,7.961,92.6,11.635C178.527,254.853,235.672,248.506,252.992,238.78Z" fill="#839753"/>
    <path id="Tracé_717" data-name="Tracé 717" d="M144.439,173.773a32.215,32.215,0,0,1-28.393-24.557c-2.755-12.678,4.588-22.522,12.022-32.487,3.511-4.706,12.947-17.355,20.72-15.348,3.778.975,3.77,4.537,10.744,14.581,8.04,11.58,10.891,10.936,13.813,17.65.75,1.723,6.028,14.4-.512,26.092C167.03,170.084,154.786,174.567,144.439,173.773Z" fill="#144627"/>
    <path id="Tracé_718" data-name="Tracé 718" d="M186.59,173.773A32.215,32.215,0,0,1,158.2,149.216c-2.755-12.678,4.588-22.522,12.022-32.487,3.511-4.706,12.947-17.355,20.72-15.348,3.778.975,3.77,4.537,10.744,14.581,8.04,11.58,10.891,10.936,13.813,17.65.75,1.723,6.028,14.4-.511,26.092C209.18,170.084,196.937,174.567,186.59,173.773Z" fill="#839753"/>
    <path id="Tracé_719" data-name="Tracé 719" d="M216.5,168.659c-18.417-1.414-33.453-15.76-36.978-31.981-3.588-16.511,5.976-29.33,15.657-42.308,4.572-6.128,16.861-22.6,26.984-19.988,4.921,1.27,4.91,5.908,13.992,18.989,10.471,15.08,14.184,14.242,17.989,22.986.977,2.244,7.85,18.747-.666,33.98C245.917,163.855,229.972,169.693,216.5,168.659Z" fill="#144627"/>
    <path id="Tracé_720" data-name="Tracé 720" d="M85.663,238.933a8.856,8.856,0,0,1-8.857-8.857V117.29a8.857,8.857,0,1,1,17.714,0V230.076A8.857,8.857,0,0,1,85.663,238.933Z" fill="#67393b"/>
    <path id="Tracé_721" data-name="Tracé 721" d="M83.673,169.178c-21.311-1.636-38.71-18.237-42.788-37.006C36.733,113.067,47.8,98.233,59,83.217c5.29-7.092,19.51-26.153,31.224-23.129,5.693,1.47,5.681,6.837,16.19,21.972,12.116,17.451,16.412,16.481,20.816,26.6,1.129,2.6,9.083,21.693-.771,39.319C117.715,163.619,99.265,170.375,83.673,169.178Z" fill="#839753"/>
    <path id="Tracé_722" data-name="Tracé 722" d="M165.2,243.149a9.194,9.194,0,0,1-9.2-9.194V116.873a9.195,9.195,0,0,1,18.389,0V233.955A9.194,9.194,0,0,1,165.2,243.149Z" fill="#67393b"/>
    <path id="Tracé_723" data-name="Tracé 723" d="M162.974,168.749c-23.818-1.828-43.266-20.383-47.824-41.362-4.641-21.354,7.728-37.934,20.25-54.718,5.912-7.926,21.806-29.231,34.9-25.851,6.363,1.643,6.349,7.642,18.1,24.559,13.543,19.5,18.345,18.42,23.266,29.728,1.263,2.9,10.153,24.247-.861,43.947C201.024,162.536,180.4,170.087,162.974,168.749Z" fill="#839753"/>
  </g>
</svg>
