<svg xmlns="http://www.w3.org/2000/svg" viewBox="0 0 140.74 141.18"><defs><style>.cls-1{fill:#fff;}</style></defs><title>fbicon</title><g id="Layer_2" data-name="Layer 2"><g id="Layer_1-2" data-name="Layer 1"><path class="cls-1" d="M0,70.45C-.62,32.14,32-.1,70.5,0c38.07.1,70.39,32,70.24,70.85-.14,38.26-32,70.47-70.76,70.33C31.88,141-.68,109.12,0,70.45ZM60.34,90.06c0,5.49.08,11,0,16.49,0,2.22.56,3.2,3,3.06,3-.18,6,0,9,0,3.76,0,3.77,0,3.77-3.67,0-10.91,0-21.83,0-32.74,0-2,.68-2.69,2.6-2.6a48.59,48.59,0,0,0,6.5-.06,2.41,2.41,0,0,0,1.8-1.41c.52-3.28.79-6.59,1.16-9.9.16-1.4-.44-2-1.84-1.94-2.67,0-5.33,0-8,0-1.43,0-2.19-.58-2.17-2.07,0-2-.08-4,.08-6,.18-2.26,1.15-4,3.74-4.21,1.9-.14,3.81-.33,5.72-.28S88.24,44,88.17,42c-.09-2.66-.07-5.33,0-8,0-1.63-.49-2.53-2.28-2.46-4.65.18-9.34.05-14,.55a12,12,0,0,0-9.38,6.3c-2.38,4.17-2.25,8.76-2.21,13.34.05,5.36,0,5.36-5.41,5.49-.17,0-.34,0-.5,0-1.52-.12-2.1.61-2.06,2.08,0,1.91,0,3.83,0,5.75,0,5.41,0,5.5,5.38,5.46,2.13,0,2.68.75,2.64,2.76C60.27,78.89,60.34,84.47,60.34,90.06Z"/></g></g></svg>