<svg xmlns="http://www.w3.org/2000/svg" xmlns:xlink="http://www.w3.org/1999/xlink" width="251.658" height="220.501" viewBox="0 0 251.658 220.501">
  <defs>
    <clipPath id="clip-path">
      <path id="Tracé_692" data-name="Tracé 692" d="M248.565,124.522a18.952,18.952,0,0,1,18.709,22.154,127.486,127.486,0,0,1-251.084,0A18.952,18.952,0,0,1,34.9,124.522Z" fill="none"/>
    </clipPath>
  </defs>
  <g id="Groupe_101" data-name="Groupe 101" transform="translate(-15.903 -31.482)">
    <path id="Tracé_684" data-name="Tracé 684" d="M105.6,135.551c-8.44,8.393-27.539,2.871-42.66-12.334s-12.1-42.727-12.1-42.727S78.378,77.619,93.5,92.824,114.036,127.158,105.6,135.551Z" fill="#144627"/>
    <path id="Tracé_685" data-name="Tracé 685" d="M111.492,149.833c-11.542,2.909-25.146-11.59-30.387-32.383s11.41-42.917,11.41-42.917,25.146,11.59,30.386,32.384S123.033,146.924,111.492,149.833Z" fill="#144627"/>
    <path id="Tracé_686" data-name="Tracé 686" d="M119.607,152.642c-11.668-2.351-17.694-21.3-13.458-42.319s28.8-33.805,28.8-33.805,17.694,21.3,13.458,42.319S131.275,154.993,119.607,152.642Z" fill="#144627"/>
    <g id="Ellipse_6" data-name="Ellipse 6" transform="translate(149.92 84.818)" fill="#839753" stroke="#144627" stroke-miterlimit="10" stroke-width="10">
      <circle cx="30.371" cy="30.371" r="30.371" stroke="none"/>
      <circle cx="30.371" cy="30.371" r="25.371" fill="none"/>
    </g>
    <path id="Tracé_687" data-name="Tracé 687" d="M160.337,88.439a5.629,5.629,0,0,0-7.369-4.325,41.725,41.725,0,0,0,14.7,81.114,5.629,5.629,0,0,0,5.383-6.635Z" fill="#eb402a"/>
    <path id="Tracé_688" data-name="Tracé 688" d="M98.219,143.169c-6.251,10.129-26.112,9.211-44.36-2.05s-21.723-38.731-21.723-38.731,26.111-9.211,44.359,2.05S104.469,133.04,98.219,143.169Z" fill="#839753"/>
    <path id="Tracé_689" data-name="Tracé 689" d="M125.347,164.456c-11.033,4.464-26.5-8.032-34.54-27.911S96.224,92.47,96.224,92.47s26.5,8.032,34.54,27.91S136.381,159.992,125.347,164.456Z" fill="#839753"/>
    <path id="Tracé_690" data-name="Tracé 690" d="M145.461,133.333c.346-6.624,1.678-13.278,5.763-14.834,4.645-1.769,9.928,4.163,13.044,2.077,3.76-2.516-1.366-12.863,2.123-15.131,3.148-2.046,8.274,5.745,15.774,4.747,6.246-.831,6.329-6.719,14.561-9.791,4.939-1.843,12.912-2.711,16.987,1.187,4.5,4.306.93,11.261,4.55,13.351,4.354,2.513,10.579-6.937,19.414-5.341a13.964,13.964,0,0,1,10.314,8.9c2.159,6.46-2.465,12.845-4.55,15.724-11.757,16.236-35.892,18.566-46.412,19.582-11.356,1.1-40.486,3.909-49.142-10.978A19,19,0,0,1,145.461,133.333Z" fill="#fef9f9" stroke="#d1d0d0" stroke-miterlimit="10" stroke-width="10"/>
    <path id="Tracé_691" data-name="Tracé 691" d="M248.565,124.522a18.952,18.952,0,0,1,18.709,22.154,127.486,127.486,0,0,1-251.084,0A18.952,18.952,0,0,1,34.9,124.522Z" fill="#67393b"/>
    <g id="Groupe_100" data-name="Groupe 100">
      <g id="Groupe_99" data-name="Groupe 99" clip-path="url(#clip-path)">
        <rect id="Rectangle_453" data-name="Rectangle 453" width="251.658" height="29.329" transform="translate(15.903 154.756)" fill="#f99254"/>
      </g>
    </g>
    <circle id="Ellipse_7" data-name="Ellipse 7" cx="12.314" cy="12.314" r="12.314" transform="translate(182.143 46.855)" fill="#d1d0d0"/>
    <circle id="Ellipse_8" data-name="Ellipse 8" cx="7.687" cy="7.687" r="7.687" transform="translate(210.662 68.831)" fill="#d1d0d0"/>
    <circle id="Ellipse_9" data-name="Ellipse 9" cx="6.561" cy="6.561" r="6.561" transform="translate(210.662 31.482)" fill="#d1d0d0"/>
  </g>
</svg>
