<svg xmlns="http://www.w3.org/2000/svg" viewBox="0 0 119.28 115.9"><defs><style>.a{fill:#fcdd86;}.b,.c{fill:none;stroke:#646086;stroke-width:5px;}.b{stroke-linejoin:round;}</style></defs><g transform="translate(-865.655 -856.102)"><path class="a" d="M21.933-15.094S44.822,11.364,44.822,28.657,34.788,59.971,22.411,59.971,0,45.951,0,28.657,21.933-15.094,21.933-15.094Z" transform="translate(876.974 894.27)"/><path class="a" d="M-1975.652,17814.75l14.5-23.834,14.906,23.834" transform="translate(2888.774 -16927.893)"/><path class="a" d="M-1953.841,17911.277h46.034s15.465-2.211,15.655-21.375-19.7-17.672-19.7-17.672-4.99-18.068-21.743-17.6-18.2,17.6-18.2,17.6" transform="translate(2877.086 -16962.031)"/><ellipse class="a" cx="11.603" cy="11.603" rx="11.603" ry="11.603" transform="translate(955.659 856.102)"/><path class="b" d="M21.933-15.094S44.822,11.364,44.822,28.657,34.788,59.971,22.411,59.971,0,45.951,0,28.657,21.933-15.094,21.933-15.094Z" transform="translate(868.155 900.305)"/><path class="c" d="M-2005.711,17945.123v-58.545" transform="translate(2896.064 -16973.121)"/><path class="c" d="M-2005.711,17945.123v-58.545" transform="translate(2941.548 -16973.121)"/><path class="c" d="M-2029.958,17926.574l11.171,12.934" transform="translate(2909.058 -16994.557)"/><path class="c" d="M-2029.958,17926.574l11.171,12.934" transform="translate(2954.542 -16994.557)"/><path class="c" d="M-2005.711,17916.09l8.886-9.082" transform="translate(2896.064 -16984.07)"/><path class="c" d="M-2005.711,17916.09l8.886-9.082" transform="translate(2941.548 -16972.934)"/><path class="c" d="M-1975.652,17814.75l14.5-23.834,14.906,23.834" transform="translate(2879.956 -16921.859)"/><path class="c" d="M-1953.841,17911.277h46.034s15.465-2.211,15.655-21.375-19.7-17.672-19.7-17.672-4.99-18.068-21.743-17.6-18.2,17.6-18.2,17.6" transform="translate(2868.268 -16956)"/><ellipse class="c" cx="11.603" cy="11.603" rx="11.603" ry="11.603" transform="translate(946.841 862.135)"/></g></svg>