<svg xmlns="http://www.w3.org/2000/svg" viewBox="0 0 121.02 114.19"><defs><style>.a{fill:#94ccd2;}.b{fill:none;stroke:#646086;stroke-width:5px;}</style></defs><g transform="translate(-1072.952 -856.727)"><path class="a" d="M-1592.061,17941.557h-6.3s-7.856.557-8.283-7.658,0-15.3,0-15.3l2.62-3.635h9.2l17.275-11.463h30.184s15.125,5.938,19.2,11.463,18.869-5.936,31.1,12.553c.033,5.047.03,14.053.03,14.053h.347l-14.724-.012" transform="translate(2690.668 -16989.152)"/><path class="a" d="M-1456.67,17782.523v-3.174h10.891v28.811h-10.891v-3.457h-6.8l-12.43-11.686" transform="translate(2620.499 -16922.623)"/><ellipse class="b" cx="9.05" cy="9.05" rx="9.05" ry="9.05" transform="translate(1090.253 950.316)"/><ellipse class="b" cx="9.05" cy="9.05" rx="9.05" ry="9.05" transform="translate(1152.908 950.316)"/><path class="b" d="M-1491.253,17985.5h-44.389" transform="translate(2644.161 -17026.133)"/><path class="b" d="M-1592.061,17941.557h-6.3s-7.856.557-8.283-7.658,0-15.3,0-15.3l2.62-3.635h9.2l17.275-11.463h30.184s15.125,5.938,19.2,11.463,18.869-5.936,31.1,12.553c.033,5.047.03,14.053.03,14.053h.347l-14.724-.012" transform="translate(2682.314 -16982.191)"/><path class="b" d="M-1591.933,17843.242v-7.613s2.988-10.672,11.825-10.643,30.519,0,30.519,0,5.731-1.73,5.5-7.395a8.436,8.436,0,0,0-5.5-7.428h-19.836a6.782,6.782,0,0,1-5.831-7.152,7.168,7.168,0,0,1,5.831-7.359h32.455l8.779-11.088h11.509" transform="translate(2674.327 -16918.455)"/><path class="b" d="M-1456.67,17782.523v-3.174h10.891v28.811h-10.891v-3.457h-6.8l-12.43-11.686" transform="translate(2612.145 -16915.66)"/><path class="b" d="M-1555.5,17929.143l4.971,4.119h41.749" transform="translate(2654.803 -16995.934)"/><path class="b" d="M-1411,17793.025h16.9" transform="translate(2577.369 -16922.988)"/><path class="b" d="M-1411,17793.025h16.9" transform="translate(2577.369 -16908.137)"/><path class="b" d="M-1436.542,17798.992v9.1" transform="translate(2591.055 -16926.188)"/></g></svg>