<svg xmlns="http://www.w3.org/2000/svg" viewBox="0 0 108.041 118.599"><defs><style>.a{fill:#fcdd86;}.b{fill:none;stroke:#646086;stroke-width:5px;}</style></defs><g transform="translate(-496.555 -865.758)"><path class="a" d="M-2824.7,17868.52v-7.4s-.488-5.494-2.773-8.457-13.342-14.658-13.082-29.559a36.821,36.821,0,0,1,9.292-23.918s7.8-9.164,22.473-9.516" transform="translate(3366.188 -16922.586)"/><path class="a" d="M-2859.456,17789.672c15.645.352,23.966,9.516,23.966,9.516a35.8,35.8,0,0,1,9.91,23.918c.277,14.9-11.514,26.594-13.951,29.559s-2.958,8.457-2.958,8.457v7.4h-33.335" transform="translate(3416.393 -16922.586)"/><path class="b" d="M-2809.549,17970.918h38.133" transform="translate(3340.289 -17015.07)"/><path class="b" d="M-2809.549,17970.918h38.133" transform="translate(3340.289 -17003.932)"/><path class="b" d="M-2847.437,17941.117l4.525-4.217" transform="translate(3360.593 -16997.77)"/><path class="b" d="M0,4.215,4.525,0" transform="translate(501.053 916.469) rotate(30)"/><path class="b" d="M0,4.215,4.525,0" transform="matrix(0.407, 0.914, -0.914, 0.407, 502.964, 890.51)"/><path class="b" d="M0,4.215,4.525,0" transform="translate(516.217 868.129) rotate(81)"/><path class="b" d="M0,4.216,4.525,0" transform="matrix(-1, 0.017, -0.017, -1, 587.798, 871.832)"/><path class="b" d="M0,4.215,4.525,0" transform="translate(600.217 894.865) rotate(-157)"/><path class="b" d="M0,4.216,4.525,0" transform="matrix(-0.391, -0.921, 0.921, -0.391, 598.365, 920.938)"/><path class="b" d="M0,4.215,4.525,0" transform="matrix(-0.052, -0.999, 0.999, -0.052, 584.439, 943.145)"/><path class="b" d="M-2774.217,17891.428s-12.347-16.1,1.841-42.449" transform="translate(3324.024 -16950.652)"/><path class="b" d="M-2791.5,17856.8s-10.192-3.184-10.575-10.7.53-12.668,5.481-16.295,14.1-13.73,14.011-15.352,14.719,8.7,12.848,24.8-14.469,15.953-14.469,15.953" transform="translate(3336.325 -16932.061)"/><path class="b" d="M-2789.908,18014.529l8.79,6.117,8.175-6.117" transform="translate(3330.692 -17039.371)"/><g transform="translate(517.277 870.801)"><path class="b" d="M-2824.7,17868.52v-7.4s-.488-5.494-2.773-8.457-13.342-14.658-13.082-29.559a36.821,36.821,0,0,1,9.292-23.918s7.8-9.164,22.473-9.516" transform="translate(2840.557 -17789.672)"/><path class="b" d="M-2823.59,17868.52v-7.4s.52-5.494,2.957-8.457,14.229-14.658,13.951-29.559a35.8,35.8,0,0,0-9.91-23.918s-8.321-9.164-23.966-9.516" transform="translate(2871.863 -17789.672)"/></g></g></svg>