<?xml version="1.0" encoding="utf-8"?>
<!-- Generator: Adobe Illustrator 23.0.3, SVG Export Plug-In . SVG Version: 6.00 Build 0)  -->
<svg version="1.1" id="Calque_1" xmlns="http://www.w3.org/2000/svg" xmlns:xlink="http://www.w3.org/1999/xlink" x="0px" y="0px"
	 viewBox="0 0 152.8 74.1" style="enable-background:new 0 0 152.8 74.1;" xml:space="preserve">
<style type="text/css">
	.st0{fill:#FFFFFF;}
</style>
<title>minilogoorange</title>
<g id="Layer_2">
	<g id="Layer_1-2">
		<path class="st0" d="M89.6,41.6H79c-1,0-1,0-1,1v1.6c0,1.2,0,1.2,1,1.2h1.8c1.3,0,1.3,0,1.3,1.3v13H82v13.6c0,0.5,0.3,0.7,0.8,0.7
			h2c1.8,0,1.6,0,1.6-1.6V46.1c0-0.4,0.2-0.7,0.8-0.6h0.7c0.9,0,2,0.3,2.5-0.3s0.2-1.7,0.2-2.5C90.6,41.7,90.6,41.6,89.6,41.6z"/>
		<path class="st0" d="M107.8,41.7c-0.9-0.1-1.2,0.2-1.4,1l-2,10c-0.1,1-0.4,1.9-0.8,2.8l-1-4l-2-8.9c-0.2-0.5-0.2-1-0.9-1
			c-1.2-0.1-2.3-0.1-3.5,0v0.1c-0.1,0.3,0,0.7,0.2,1l4.6,17.9c0.3,1,0.4,2,0.4,3V73c0,0.7,0.2,1,1,1h2.1c1.2,0,1.3,0,1.3-1.2v-9.2
			c0-0.9,0.1-1.9,0.3-2.8l4.4-17.3c0.3-0.6,0.4-1.2,0.3-1.8C109.8,41.6,108.8,41.7,107.8,41.7z"/>
		<path class="st0" d="M100,27.9V5.6c-0.2-3.4-2-5.2-5.3-5.5c-0.5,0-1.1,0-1.6,0h-5c-1.9,0-1.8-0.2-1.8,1.7v14.6l0,0v15.5
			c0,0.5,0.2,0.7,0.7,0.7h8.5C98.4,32.4,99.8,30.8,100,27.9z M93.4,28.6H92c-1.3,0-1.3,0-1.3-1.2V17.1c-0.1-0.3-0.1-0.6-0.1-0.9v-11
			c0-1.1,0-1.2,1.2-1.2h2c1,0,1.7,0.7,1.8,1.7c0,0.4,0,0.8,0,1.2v19.5C95.6,28.3,95.3,28.6,93.4,28.6z"/>
		<path class="st0" d="M58.6,45.2c-0.2-2-2-3.6-4-3.6c-1.7-0.2-3.3-0.2-5,0c-2,0-3.7,1.5-3.9,3.5c-0.2,0.9-0.2,1.9-0.2,2.8v9.9h-0.1
			v9.8c0,0.9,0.1,1.7,0.2,2.6c0.2,2.1,2,3.7,4.1,3.8c1.6,0.1,3.1,0.1,4.7,0c2.1,0,3.9-1.7,4.1-3.8c0.1-0.5,0.1-0.9,0.1-1.4
			c0.1-2.9,0.3-2.4-2.2-2.4c-1.9,0-1.9,0-2,1.8v0.3c0,0.9-0.8,1.6-1.8,1.6c0,0,0,0,0,0h-1c-1.2,0-1.7-0.5-1.8-1.8c0-0.3,0-0.7,0-1
			v-19c0-0.5,0-0.9,0-1.4c0-0.5,0.3-0.9,0.7-1.1c0.9-0.5,1.9-0.5,2.8-0.2c1,0.3,1,1.1,1,1.9v2.3c0,0.5,0.2,0.9,0.8,0.9h3
			c0.3,0,0.5-0.2,0.5-0.5c0,0,0,0,0,0c0,0,0-0.1,0-0.1C58.7,48.5,58.7,46.9,58.6,45.2z"/>
		<path class="st0" d="M74,0.3c-1.9-0.3-3.8-0.3-5.7,0c-2,0.1-3.6,1.7-3.8,3.7c-0.1,0.9-0.2,1.8-0.2,2.7v23.5c0,0.8-0.4,1.8,0.2,2.2
			s1.5,0.2,2.3,0.2c2,0,1.7,0.3,1.8-1.7v-8.8c0-1.3,0-1.3,1.3-1.3h2.5c1.1,0,1.2,0,1.2,1v7.7c0,1-0.4,2.2,0.2,2.8
			c0.7,0.8,2,0.3,3,0.3s1.1,0,1.1-1.2V6c0-0.8-0.1-1.6-0.3-2.4C77.3,1.8,75.8,0.5,74,0.3z M73.6,15.5c0,1.1,0,1.1-1.2,1.1h-3
			c-0.6,0-0.9-0.1-0.9-0.8v-10c0-1.3,0.6-1.8,1.9-1.8h0.1c2.5-0.1,3,0.3,3,2.7v4.1h0.1V15.5z"/>
		<path class="st0" d="M70.9,44.7c0-1,0.4-2.2-0.2-2.8c-0.7-0.8-2-0.3-3-0.3s-1.1,0-1.1,1.1v30.1c0,1.2,0,1.2,1.1,1.3h1.2
			c2.3,0,2,0.2,2-2V44.7z"/>
		<path class="st0" d="M28.6,60.6c0,0.7,0.4,0.9,1,0.8h6.6c2.7,0,2.3,0.5,2.4-2.4c0-1.1,0-1.1-1.3-1.1h-6.2
			C28.1,57.9,28.7,57.3,28.6,60.6z"/>
		<path class="st0" d="M13.2,16.1V5.8c0-0.5,0-1.1,0-1.6c-0.1-2.2-1.9-3.9-4.1-4c-2.8-0.2-5.5,0-8.2,0C0.3,0.2,0.1,0.5,0.1,1v15.5H0
			v15.4c0,0.5,0.2,0.7,0.7,0.7h1.9c1.9,0,1.7,0.2,1.7-1.7v-9c0-1,0-1,1-1h2.9C11.3,20.8,13,19.1,13.2,16.1z M4.3,14.7v-4.3l0.1,0.1
			V5.3c0-1.2,0-1.2,1.2-1.3h1.6C8,4,8.7,4.6,8.8,5.4c0,0,0,0,0,0v0.1c0,0.3,0,0.5,0,0.8v8c0,2-0.4,2.5-2.4,2.5
			C3.9,16.8,4.4,17,4.3,14.7z"/>
		<path class="st0" d="M20.9,18.1v12.3c0,2.2,0,2.2,2.2,2.2c2,0,2,0,2-2.1v-8c0-2,0-1.8,1.9-1.8h1.5c1.8,0,1.6,0,1.6,1.6v9.2
			c0,0.8,0.2,1.1,1,1h2c1.4,0,1.4,0,1.4-1.2V5.5c0-0.8-0.1-1.6-0.3-2.3c-0.4-1.6-1.7-2.8-3.3-3c-2.1-0.3-4.2-0.3-6.3,0
			c-1.6,0.2-3,1.4-3.4,3c-0.2,0.9-0.4,1.9-0.3,2.9L20.9,18.1z M25.2,6c0-1.4,0.6-2,2-2h0.4c2.2,0,2.6,0.4,2.6,2.5v9.2
			c0,0.7-0.2,1-0.9,1c-1.1-0.1-2.1-0.1-3.2,0c-0.7,0-0.9-0.3-0.9-0.9V6z"/>
		<path class="st0" d="M43.7,32.5H46c1,0,1,0,1-1V20.6c0-1.1,0-1.1,1.4-1.2h0.4c0.7,0,1,0.3,1.1,1l0.6,2.4l1.8,8.5
			c0.3,1.2,0.3,1.3,1.7,1.3c0.9,0,1.8,0,2.7-0.2c-0.1-0.6-0.2-1.3-0.4-1.9L54,20.1c-0.3-0.6-0.1-1.3,0.5-1.6
			c0.7-0.5,1.2-1.3,1.4-2.1c0.2-0.8,0.3-1.6,0.3-2.4V5.4c0-0.5,0-1.1-0.1-1.6c-0.2-2-1.9-3.6-3.9-3.6c-0.4-0.1-0.8-0.1-1.2-0.1h-7
			c-1.1,0-1.1,0-1.1,1.1v30.5C42.8,32.4,43.1,32.6,43.7,32.5z M47.1,9.8L47.1,9.8l0.1-4.5c0-1.2,0-1.2,1.2-1.2h1.8
			c0.8,0,1.5,0.5,1.6,1.3c0.1,0.3,0.1,0.7,0.1,1v7c0,0.3,0,0.7,0,1c-0.2,0.8-0.9,1.4-1.7,1.4H48c-0.7,0-0.9-0.2-0.9-0.8L47.1,9.8z"
			/>
		<path class="st0" d="M151.7,28.9h-4.5c-0.7,0-1-0.3-1-1v-9.1c0-0.6,0.2-0.8,0.8-0.8h2.2c2.9,0,2.9,0,2.8-3c0-0.7-0.3-1-1-1h-3.8
			c-0.6,0-0.9-0.2-0.9-0.8V5c0-0.6,0.3-0.8,0.8-0.8h2.8c3,0,3,0,2.9-3c0-0.8-0.3-1-1-1H143c-0.7,0-1,0.2-1,1v30.2
			c0,1.2,0,1.3,1.2,1.3h6.9c2.8,0,2.8,0,2.7-2.8C152.8,28.9,152.8,28.9,151.7,28.9z"/>
		<path class="st0" d="M121.6,61.4c3,0,2.4,0.6,2.5-2.6c0-1,0-1-1-1h-6.4c-2.7,0-2.7,0-2.5,2.7c0,0.7,0.3,1,1,0.8l3.9,0.1H121.6z"/>
		<path class="st0" d="M122.8,16.5l1.3,0.8l4.4,2.4c0.7,0.4,1.2,1.2,1.1,2c-0.1,0.8-0.1,1.6,0,2.4V27c0,0.9-0.8,1.7-1.7,1.7h-1.1
			c-1.2-0.2-1.6-0.6-1.6-1.7v-1.2c0-0.5-0.3-0.7-0.8-0.7c-1.2,0.1-2.4-0.2-3.5,0.3c-0.1,1.2-0.1,2.4,0.2,3.6
			c0.3,2.1,2.1,3.6,4.2,3.7h2.8c4.4,0.2,5.8-2,5.8-5.7v-5.6c0-3.5-0.2-3.9-3.2-5.6l-4.4-2.4c-0.7-0.4-1.2-1.2-1.1-2V6.3
			c0-1.5,0.5-2,2-2c1.7,0,2.2,0.5,2.4,2c0,0.9-0.5,2,0.3,2.6c0.6,0.5,1.7,0.1,2.6,0.2h0.7c0.6,0,0.7-0.3,0.7-0.8
			c0.1-1.3,0-2.7-0.2-4c-0.2-2.1-1.9-3.8-4-3.9c-1.5-0.1-2.9-0.1-4.4,0c-2.8,0.2-4.4,1.7-4.5,4.6v8.3
			C120.8,14.7,121.5,16,122.8,16.5z"/>
		<path class="st0" d="M111.8,0.2H109c-0.5,0-0.8,0.1-0.8,0.8v15.4h0.1v13c0,1-0.5,2.3,0.2,3s2.1,0.1,3.2,0.2c0.6,0,1-0.1,0.9-0.8
			v-31C112.6,0.3,112.3,0.1,111.8,0.2z"/>
	</g>
</g>
</svg>
