<svg xmlns="http://www.w3.org/2000/svg" viewBox="0 0 152.83 74.13"><defs><style>.cls-1{fill:#eb8b79;}</style></defs><title>minilogoorange</title><g id="Layer_2" data-name="Layer 2"><g id="Layer_1-2" data-name="Layer 1"><path class="cls-1" d="M89.6,41.63H79c-1,0-1,0-1,1v1.6c0,1.2,0,1.2,1,1.2h1.8c1.3,0,1.3,0,1.3,1.3v13H82v13.6c0,.5.3.7.8.7h2c1.8,0,1.6,0,1.6-1.6V46.13c0-.4.2-.7.8-.6h.7c.9,0,2,.3,2.5-.3s.2-1.7.2-2.5C90.6,41.73,90.6,41.63,89.6,41.63Z"/><path class="cls-1" d="M107.8,41.73c-.9-.1-1.2.2-1.4,1l-2,10a9.45,9.45,0,0,1-.8,2.8l-1-4-2-8.9c-.2-.5-.2-1-.9-1a17.06,17.06,0,0,0-3.5,0v.1a1.52,1.52,0,0,0,.2,1l4.6,17.9a12.67,12.67,0,0,1,.4,3V73c0,.7.2,1,1,1h2.1c1.2,0,1.3,0,1.3-1.2v-9.2a10.59,10.59,0,0,1,.3-2.8l4.4-17.3a3.37,3.37,0,0,0,.3-1.8A25,25,0,0,0,107.8,41.73Z"/><path class="cls-1" d="M100,27.93V5.63c-.2-3.4-2-5.2-5.3-5.5a14.23,14.23,0,0,0-1.6,0h-5c-1.9,0-1.8-.2-1.8,1.7v14.6h0v15.5c0,.5.2.7.7.7h8.5C98.4,32.43,99.8,30.83,100,27.93Zm-6.6.7H92c-1.3,0-1.3,0-1.3-1.2V17.13a3.94,3.94,0,0,1-.1-.9v-11c0-1.1,0-1.2,1.2-1.2h2a1.8,1.8,0,0,1,1.8,1.7,8,8,0,0,1,0,1.2v19.5C95.6,28.33,95.3,28.63,93.4,28.63Z"/><path class="cls-1" d="M58.6,45.23a4.1,4.1,0,0,0-4-3.6,24.57,24.57,0,0,0-5,0,4,4,0,0,0-3.9,3.5,13.79,13.79,0,0,0-.2,2.8v9.9h-.1v9.8a18.85,18.85,0,0,0,.2,2.6A4.2,4.2,0,0,0,49.7,74a30.73,30.73,0,0,0,4.7,0,4.2,4.2,0,0,0,4.1-3.8,13,13,0,0,0,.1-1.4c.1-2.9.3-2.4-2.2-2.4-1.9,0-1.9,0-2,1.8v.3a1.69,1.69,0,0,1-1.8,1.6h-1c-1.2,0-1.7-.5-1.8-1.8a5.57,5.57,0,0,1,0-1v-19a10.9,10.9,0,0,1,0-1.4,1.41,1.41,0,0,1,.7-1.1,3.5,3.5,0,0,1,2.8-.2c1,.3,1,1.1,1,1.9v2.3c0,.5.2.9.8.9h3a.5.5,0,0,0,.51-.49.41.41,0,0,0,0-.11A30.83,30.83,0,0,0,58.6,45.23Z"/><path class="cls-1" d="M74,.33a21.75,21.75,0,0,0-5.7,0A4,4,0,0,0,64.5,4a20.31,20.31,0,0,0-.2,2.7v23.5c0,.8-.4,1.8.2,2.2s1.5.2,2.3.2c2,0,1.7.3,1.8-1.7v-8.8c0-1.3,0-1.3,1.3-1.3h2.5c1.1,0,1.2,0,1.2,1v7.7c0,1-.4,2.2.2,2.8.7.8,2,.3,3,.3s1.1,0,1.1-1.2V6a10.8,10.8,0,0,0-.3-2.4A4,4,0,0,0,74,.33Zm-.4,15.2c0,1.1,0,1.1-1.2,1.1h-3c-.6,0-.9-.1-.9-.8v-10c0-1.3.6-1.8,1.9-1.8h.1c2.5-.1,3,.3,3,2.7v4.1h.1Z"/><path class="cls-1" d="M70.9,44.73c0-1,.4-2.2-.2-2.8-.7-.8-2-.3-3-.3s-1.1,0-1.1,1.1v30.1c0,1.2,0,1.2,1.1,1.3h1.2c2.3,0,2,.2,2-2V44.73Z"/><path class="cls-1" d="M28.6,60.63c0,.7.4.9,1,.8h6.6c2.7,0,2.3.5,2.4-2.4,0-1.1,0-1.1-1.3-1.1H31.1C28.1,57.93,28.7,57.33,28.6,60.63Z"/><path class="cls-1" d="M13.2,16.13V5.83a14.23,14.23,0,0,0,0-1.6,4.2,4.2,0,0,0-4.1-4C6.3,0,3.6.23.9.23.3.23.1.53.1,1v15.5H0v15.4c0,.5.2.7.7.7H2.6c1.9,0,1.7.2,1.7-1.7v-9c0-1,0-1,1-1H8.2C11.3,20.83,13,19.13,13.2,16.13Zm-8.9-1.4v-4.3l.1.1V5.33c0-1.2,0-1.2,1.2-1.3H7.2a1.5,1.5,0,0,1,1.6,1.4v.1a5.34,5.34,0,0,1,0,.8v8c0,2-.4,2.5-2.4,2.5C3.9,16.83,4.4,17,4.3,14.73Z"/><path class="cls-1" d="M20.9,18.13v12.3c0,2.2,0,2.2,2.2,2.2,2,0,2,0,2-2.1v-8c0-2,0-1.8,1.9-1.8h1.5c1.8,0,1.6,0,1.6,1.6v9.2c0,.8.2,1.1,1,1h2c1.4,0,1.4,0,1.4-1.2V5.53a7.46,7.46,0,0,0-.3-2.3,4,4,0,0,0-3.3-3,21.45,21.45,0,0,0-6.3,0,4,4,0,0,0-3.4,3,9.42,9.42,0,0,0-.3,2.9ZM25.2,6c0-1.4.6-2,2-2h.4c2.2,0,2.6.4,2.6,2.5v9.2c0,.7-.2,1-.9,1a28.47,28.47,0,0,0-3.2,0c-.7,0-.9-.3-.9-.9Z"/><path class="cls-1" d="M43.7,32.53H46c1,0,1,0,1-1V20.63c0-1.1,0-1.1,1.4-1.2h.4c.7,0,1,.3,1.1,1l.6,2.4,1.8,8.5c.3,1.2.3,1.3,1.7,1.3a10.66,10.66,0,0,0,2.7-.2,17.82,17.82,0,0,0-.4-1.9L54,20.13a1.2,1.2,0,0,1,.5-1.6,3.71,3.71,0,0,0,1.4-2.1,7.5,7.5,0,0,0,.3-2.4V5.43a6.6,6.6,0,0,0-.1-1.6A4,4,0,0,0,52.2.23,6.94,6.94,0,0,0,51,.13H44c-1.1,0-1.1,0-1.1,1.1v30.5C42.8,32.43,43.1,32.63,43.7,32.53Zm3.4-22.7h.1V5.33c0-1.2,0-1.2,1.2-1.2h1.8a1.6,1.6,0,0,1,1.6,1.3,2.59,2.59,0,0,1,.1,1v7a5.57,5.57,0,0,1,0,1,1.71,1.71,0,0,1-1.7,1.4H48c-.7,0-.9-.2-.9-.8Z"/><path class="cls-1" d="M151.7,28.93h-4.5c-.7,0-1-.3-1-1v-9.1c0-.6.2-.8.8-.8h2.2c2.9,0,2.9,0,2.8-3,0-.7-.3-1-1-1h-3.8c-.6,0-.9-.2-.9-.8V5c0-.6.3-.8.8-.8h2.8c3,0,3,0,2.9-3,0-.8-.3-1-1-1H143c-.7,0-1,.2-1,1v30.2c0,1.2,0,1.3,1.2,1.3h6.9c2.8,0,2.8,0,2.7-2.8C152.8,28.93,152.8,28.93,151.7,28.93Z"/><path class="cls-1" d="M121.6,61.43c3,0,2.4.6,2.5-2.6,0-1,0-1-1-1h-6.4c-2.7,0-2.7,0-2.5,2.7,0,.7.3,1,1,.8l3.9.1Z"/><path class="cls-1" d="M122.8,16.53l1.3.8,4.4,2.4a2.09,2.09,0,0,1,1.1,2,16,16,0,0,0,0,2.4V27a1.7,1.7,0,0,1-1.7,1.7h-1.1c-1.2-.2-1.6-.6-1.6-1.7v-1.2c0-.5-.3-.7-.8-.7-1.2.1-2.4-.2-3.5.3a10.15,10.15,0,0,0,.2,3.6,4.39,4.39,0,0,0,4.2,3.7h2.8c4.4.2,5.8-2,5.8-5.7v-5.6c0-3.5-.2-3.9-3.2-5.6l-4.4-2.4a2.1,2.1,0,0,1-1.1-2V6.33c0-1.5.5-2,2-2,1.7,0,2.2.5,2.4,2,0,.9-.5,2,.3,2.6.6.5,1.7.1,2.6.2h.7c.6,0,.7-.3.7-.8a21.38,21.38,0,0,0-.2-4,4.3,4.3,0,0,0-4-3.9,21.57,21.57,0,0,0-4.4,0c-2.8.2-4.4,1.7-4.5,4.6v8.3A3.4,3.4,0,0,0,122.8,16.53Z"/><path class="cls-1" d="M111.8.23H109c-.5,0-.8.1-.8.8v15.4h.1v13c0,1-.5,2.3.2,3s2.1.1,3.2.2c.6,0,1-.1.9-.8V.83C112.6.33,112.3.13,111.8.23Z"/></g></g></svg>