<svg xmlns="http://www.w3.org/2000/svg" viewBox="0 0 512 512"><defs><style>.cls-1{fill:#fff;}</style></defs><title>Fichier 1</title><g id="Calque_2" data-name="Calque 2"><g id="Calque_1-2" data-name="Calque 1"><g id="FZDJep.tif"><path class="cls-1" d="M240,0h32c1.28.28,2.56.61,3.85.83,15.87,2.74,32.26,3.78,47.54,8.47q152,46.58,184.66,202.6c1.92,9.24,2.66,18.73,3.95,28.1v32a34.63,34.63,0,0,0-.86,4.36c-1.84,24.73-6.85,48.85-16.37,71.71-36.63,87.87-101.56,141.6-195.19,160.06-9.1,1.79-18.38,2.6-27.58,3.87H240c-1.28-.28-2.55-.62-3.83-.84-15.88-2.74-32.06-4.29-47.58-8.38C93.81,477.79,19.94,396.44,3.9,300.11,2.35,290.78,1.29,281.37,0,272V240c.29-1.45.62-2.9.87-4.36,2.69-15.54,4.18-31.41,8.24-46.59C34.77,93.06,114.19,21,212.4,3.83,221.54,2.24,230.8,1.26,240,0Zm15.9,472c118.89.1,215.91-96.79,216.09-215.79S375.38,40.29,255.83,40C137.48,39.72,40,137,40,255.53,40,374.93,136.7,471.9,255.9,472Z"/><path class="cls-1" d="M184,255.81V165.32c0-1.67,0-3.34.05-5,.66-12,9.46-17.45,20.08-11.94,9.59,5,18.79,10.73,28.14,16.18q66.21,38.63,132.42,77.29c15.21,8.88,15.23,19.41.11,28.24L208.21,361.46l-1.73,1C193.41,369.73,184,364.3,184,349.3Q183.93,302.54,184,255.81Z"/></g></g></g></svg>