<?xml version="1.0" encoding="utf-8"?>
<!-- Generator: Adobe Illustrator 23.0.3, SVG Export Plug-In . SVG Version: 6.00 Build 0)  -->
<svg version="1.1" id="Layer_1" xmlns="http://www.w3.org/2000/svg" xmlns:xlink="http://www.w3.org/1999/xlink" x="0px" y="0px"
	 viewBox="0 0 41 23" style="enable-background:new 0 0 41 23;" xml:space="preserve">
<g id="soundcloud_2_" transform="translate(-112 40.977) rotate(-90)">
	<path id="Tracé_652" d="M30.8,146.6c0-0.4,0-0.9-0.1-1.3c5.9-0.6,10.4-5.6,10.4-11.5c0-0.7-0.6-1.3-1.3-1.3c0,0,0,0,0,0H19.2
		c-0.7,0-1.3,0.6-1.3,1.3l0,0v12.8c0,3.5,2.9,6.4,6.4,6.4C27.9,153,30.7,150.1,30.8,146.6L30.8,146.6z"/>
	<path id="Tracé_653" d="M38.4,128.7c0-0.7-0.6-1.3-1.3-1.3h0H19.2c-0.7,0-1.3,0.5-1.3,1.2c0,0.7,0.5,1.3,1.2,1.3c0,0,0,0,0.1,0
		h17.9C37.9,129.9,38.4,129.4,38.4,128.7z"/>
	<path id="Tracé_654" d="M33.3,123.5c0-0.7-0.6-1.3-1.3-1.3h0H19.2c-0.7,0-1.3,0.5-1.3,1.2s0.5,1.3,1.2,1.3c0,0,0,0,0.1,0H32
		C32.7,124.8,33.3,124.3,33.3,123.5z"/>
	<path id="Tracé_655" d="M33.3,118.4c0-0.7-0.6-1.3-1.3-1.3l0,0H19.2c-0.7,0-1.3,0.5-1.3,1.2c0,0.7,0.5,1.3,1.2,1.3c0,0,0,0,0.1,0
		H32C32.7,119.7,33.3,119.1,33.3,118.4z"/>
	<path id="Tracé_656" d="M29.5,113.3c0-0.7-0.6-1.3-1.3-1.3c0,0,0,0,0,0h-7.7c-0.7,0-1.3,0.6-1.2,1.3c0,0.7,0.6,1.2,1.2,1.2h7.7
		C28.9,114.6,29.5,114,29.5,113.3z"/>
</g>
</svg>
