<svg xmlns="http://www.w3.org/2000/svg" viewBox="0 0 46 46"><defs><style>.cls-1{fill:#fff;}</style></defs><title>smallinsta</title><g id="Layer_2" data-name="Layer 2"><g id="Layer_1-2" data-name="Layer 1"><path d="M0,38.28V7.79C.14,7.2.22,6.59.41,6A8.46,8.46,0,0,1,6.33.33C6.81.19,7.3.11,7.79,0H38.21c.51.12,1,.2,1.53.35a8.41,8.41,0,0,1,5.91,5.92c.15.47.24,1,.35,1.45V38.28c-.12.5-.21,1-.36,1.49a8.43,8.43,0,0,1-5.83,5.87c-.5.15-1,.24-1.53.36H7.72a1.22,1.22,0,0,0-.17-.07,8.27,8.27,0,0,1-3.33-1.15A8.4,8.4,0,0,1,.34,39.7C.21,39.23.11,38.76,0,38.28ZM36.78,19.39H32c0-1.28,0-2.52,0-3.75a1.21,1.21,0,0,1,1.22-1.35c1.15-.1,2.3-.07,3.45-.1h.54V8.87l-.24,0c-1.68,0-3.36,0-5,0a14.89,14.89,0,0,0-2.4.23A5.37,5.37,0,0,0,26.06,11a6.27,6.27,0,0,0-1.26,3.54c-.09,1.45-.07,2.91-.09,4.37,0,.14,0,.28,0,.46H21.92v4.84c0,.52,0,.52.51.52H24.7V40.68h7.2V24.77h4c.25,0,.36-.07.39-.34.1-1,.22-2.07.33-3.1C36.65,20.71,36.71,20.08,36.78,19.39Z"/><path class="cls-1" d="M36.78,19.39c-.07.69-.13,1.32-.2,1.95-.11,1-.23,2.06-.33,3.1,0,.27-.14.34-.39.34h-4V40.68H24.7V24.77H22.43c-.51,0-.51,0-.51-.52V19.41h2.79c0-.18,0-.32,0-.46,0-1.46,0-2.92.09-4.37A6.27,6.27,0,0,1,26.06,11a5.37,5.37,0,0,1,3.43-1.95,14.89,14.89,0,0,1,2.4-.23c1.68,0,3.36,0,5,0l.24,0v5.32h-.54c-1.15,0-2.3,0-3.45.1A1.21,1.21,0,0,0,32,15.64c0,1.23,0,2.47,0,3.75Z"/><rect x="5" y="4" width="35" height="39"/><path class="cls-1" d="M37.84,11.93A5.84,5.84,0,0,0,32,7.64H14a7.39,7.39,0,0,0-1.55.14,5.84,5.84,0,0,0-4.7,6q0,9.06,0,18.12a7.3,7.3,0,0,0,.13,1.4,5.87,5.87,0,0,0,6,4.72h18a6.81,6.81,0,0,0,1.5-.14,5.84,5.84,0,0,0,4.68-6q0-9,0-18.07A7.16,7.16,0,0,0,37.84,11.93Zm-8.36-.76h5.06v5.1H29.48ZM23,17.49a5.33,5.33,0,1,1-5.38,5.33A5.31,5.31,0,0,1,23,17.49Zm12.15,14.3A2.92,2.92,0,0,1,31.89,35h-18a2.92,2.92,0,0,1-3.22-3.23c0-3.83,0-7.67,0-11.51v-.55h4.47C14.07,24.1,15,27.27,18,29.49a8.15,8.15,0,0,0,9.07.48c3.85-2.45,4.87-6,3.6-10.26h4.43c0,.2,0,.38,0,.56Z"/></g></g></svg>