<svg xmlns="http://www.w3.org/2000/svg" viewBox="0 0 136.515 139.395"><defs><style>.a{fill:#94ccd2;}.b,.c{fill:none;stroke:#646086;stroke-width:5px;}.c{stroke-linejoin:round;}</style></defs><g transform="translate(-1286.161 -676.326)"><path class="a" d="M14.278-15.094s14.9,12.327,14.9,20.384A14.589,14.589,0,0,1,0,5.29C0-2.767,14.278-15.094,14.278-15.094Z" transform="translate(1326.951 734.805)"/><path class="a" d="M7.494-15.094s7.821,6.47,7.821,10.7A7.657,7.657,0,0,1,7.657,3.263,7.657,7.657,0,0,1,0-4.395C0-8.624,7.494-15.094,7.494-15.094Z" transform="translate(1350.371 717.529)"/><path class="a" d="M9.986-15.094S20.406-6.473,20.406-.838a10.2,10.2,0,0,1-10.2,10.2A10.2,10.2,0,0,1,0-.838C0-6.473,9.986-15.094,9.986-15.094Z" transform="translate(1364.576 737.492)"/><path class="b" d="M-3218.026,17814.621l-31.177,24.105c0-.051-4.583,37.1-4.583,37.1l-8.505-7.633" transform="translate(4550.121 -17126.242)"/><path class="b" d="M44.265,0,13.088,24.105c0-.051-4.583,37.1-4.583,37.1L0,53.574" transform="translate(1420.129 710.904) rotate(120)"/><path class="b" d="M44.265,0,13.088,24.1c0-.051-4.583,37.1-4.583,37.1L0,53.573" transform="translate(1334.171 813.285) rotate(-120)"/><path class="c" d="M14.278-15.094s14.9,12.327,14.9,20.384A14.589,14.589,0,0,1,0,5.29C0-2.767,14.278-15.094,14.278-15.094Z" transform="translate(1318.133 740.84)"/><path class="c" d="M7.494-15.094s7.821,6.47,7.821,10.7A7.657,7.657,0,0,1,7.657,3.263,7.657,7.657,0,0,1,0-4.395C0-8.624,7.494-15.094,7.494-15.094Z" transform="translate(1341.552 723.563)"/><path class="c" d="M9.986-15.094S20.406-6.473,20.406-.838a10.2,10.2,0,0,1-10.2,10.2A10.2,10.2,0,0,1,0-.838C0-6.473,9.986-15.094,9.986-15.094Z" transform="translate(1355.758 743.527)"/><path class="b" d="M-3243.933,17935.258l9.3-9.645" transform="translate(4540.748 -17182.008)"/><path class="b" d="M0,9.646,9.3,0" transform="translate(1367.81 691.072) rotate(120)"/><path class="b" d="M0,9.646,9.3,0" transform="translate(1377.505 777.893) rotate(-120)"/></g></svg>