<svg xmlns="http://www.w3.org/2000/svg" viewBox="0 0 86.635 135.682"><defs><style>.a{fill:#f2b597;}.b,.d{fill:none;}.b{stroke:#646086;stroke-width:5px;}.c{stroke:none;}</style></defs><g transform="translate(-687.913 -847.674)"><path class="a" d="M-2358.788,17763.492s-9.2-1.979-10.669,5.676,2.862,9.746,2.862,9.746-2.613,8.816,2.776,12.6a10.312,10.312,0,0,0,10.63.793s6.55,6.373,12.707,1.281,3.833-9.785,3.833-9.785,7.193-4.656,5.521-10.834-8.825-7.221-8.825-7.221-1.677-9.072-9.131-8.9A10.55,10.55,0,0,0-2358.788,17763.492Z" transform="translate(3097.651 -16909.172)"/><ellipse class="a" cx="33.365" cy="11.652" rx="33.365" ry="11.652" transform="translate(707.819 896.943)"/><path class="a" d="M-2361.193,17895.105v54.971s-11.169,8.529-34.544,8.471-40.772,0-40.772,0v-50.594h8.864v-11.939s55.394-.656,55.394,7.686" transform="translate(3135.742 -16986.975)"/><ellipse class="b" cx="33.365" cy="11.652" rx="33.365" ry="11.652" transform="translate(699.001 905.762)"/><ellipse class="b" cx="14.195" cy="5.085" rx="14.195" ry="5.085" transform="translate(719.299 912.541)"/><path class="b" d="M-2418.007,17893.633v13.336" transform="translate(3117.008 -16976.902)"/><path class="b" d="M-2361.193,17895.105v54.971s-11.169,8.529-34.544,8.471-40.772,0-40.772,0v-50.594h40.772v42.619" transform="translate(3126.923 -16977.691)"/><path class="b" d="M-2421.994,17831.66l16.917.842s8.026,6.818,6.5,9.979-11.4,1.736-11.4,1.736Z" transform="translate(3119.145 -16943.691)"/><path class="b" d="M-2349.594,17859.063a42.419,42.419,0,0,1,1.018-22.979" transform="translate(3080.941 -16946.064)"/><path class="b" d="M-2358.788,17763.492s-9.2-1.979-10.669,5.676,2.862,9.746,2.862,9.746-2.613,8.816,2.776,12.6a10.312,10.312,0,0,0,10.63.793s6.55,6.373,12.707,1.281,3.833-9.785,3.833-9.785,7.193-4.656,5.521-10.834-8.825-7.221-8.825-7.221-1.677-9.072-9.131-8.9A10.55,10.55,0,0,0-2358.788,17763.492Z" transform="translate(3091.154 -16903.602)"/><g class="b" transform="translate(733.349 865.383)"><ellipse class="c" cx="7.658" cy="7.658" rx="7.658" ry="7.658"/><ellipse class="d" cx="7.658" cy="7.658" rx="5.158" ry="5.158"/></g></g></svg>