<svg xmlns="http://www.w3.org/2000/svg" viewBox="0 0 123.208 121.99"><defs><style>.a,.c{fill:none;stroke:#646086;stroke-width:5px;}.b{fill:#f2b597;}.c{stroke-linejoin:round;}</style></defs><g transform="translate(-499.05 -676.352)"><path class="a" d="M-4961.829,17829.895h10.032" transform="translate(5460.879 -17133.498)"/><path class="a" d="M-4961.829,17829.895h10.032" transform="translate(5460.879 -17118.184)"/><path class="a" d="M-4961.829,17829.895h10.032" transform="translate(5460.879 -17102.867)"/><path class="a" d="M-4961.829,17829.895h10.032" transform="translate(5460.879 -17087.551)"/><path class="b" d="M-4926.676,17879.082l-7.534,16.781c0-.055,18.8,18.8,18.8,18.8l18.08-18.8-7.783-16.781v-68.273l-10.3-10.031-11.269,10.031Z" transform="translate(5453.504 -17123)"/><path class="b" d="M-4780.243,17863.52h-7.641l-6.712-7.312-7.626,2.967h-6.647l-12.874-13.137h-17.29v-9.811l7.174-6.881h7.776l5.977-4.812c-.028-.029,11.844,0,11.844,0l6.316-5.324" transform="translate(5402.501 -17132.877)"/><path class="b" d="M-4842.394,17912.736v-6.365l6.343-7.414c0,.018,12.21,0,12.21,0l14.444,12.922v15.047l-11.08,10.908h-6.9v-17.771l-8.243-7.326Z" transform="translate(5404.301 -17175.613)"/><path class="c" d="M-4926.676,17879.082l-7.534,16.781c0-.055,18.8,18.8,18.8,18.8l18.08-18.8-7.783-16.781v-68.273l-10.3-10.031-11.269,10.031Z" transform="translate(5446.078 -17118.824)"/><path class="a" d="M-4894.476,17843.453v75.146" transform="translate(5424.786 -17141.691)"/><path class="c" d="M-4854.741,17794.859s38.262-6.07,56.579,22.4,6.528,53.414-4.46,65.824a52.657,52.657,0,0,1-43.947,16.887" transform="translate(5403.957 -17115.359)"/><path class="c" d="M-4780.243,17863.52h-7.641l-6.712-7.312-7.626,2.967h-6.647l-12.874-13.137h-17.29v-9.811l7.174-6.881h7.776l5.977-4.812c-.028-.029,11.844,0,11.844,0l6.316-5.324" transform="translate(5395.075 -17128.699)"/><path class="c" d="M-4842.394,17912.736v-6.365l6.343-7.414c0,.018,12.21,0,12.21,0l14.444,12.922v15.047l-11.08,10.908h-6.9v-17.771l-8.243-7.326Z" transform="translate(5396.875 -17171.438)"/></g></svg>